<svg width="24" height="24" viewBox="0 0 24 24" xmlns="http://www.w3.org/2000/svg">
    <g transform="translate(0 2)" fill="#626A6E" fill-rule="evenodd">
        <path d="M22.556 15.458c.797 0 1.444.667 1.444 1.49 0 .822-.647 1.49-1.444 1.49-.798 0-1.444-.668-1.444-1.49 0-.823.646-1.49 1.444-1.49zM2.166 1.48c.798 0 1.445.667 1.445 1.49s-.647 1.49-1.445 1.49C1.37 4.46.722 3.793.722 2.97s.647-1.49 1.444-1.49z" fill-rule="nonzero"/>
        <circle cx="16.451" cy="19.007" r="1"/>
        <circle cx="7.86" cy="6.261" r="1"/>
        <path d="M10.743.005C7.665.116 4.993 2.22 3.924 5.247l-.029.084-.203.06C1.525 6.074 0 8.194 0 10.676c0 2.877 2.094 5.309 4.78 5.524l13.068.003C20.22 15.978 22 13.88 22 11.412l-.005-.226c-.09-2.099-1.433-3.854-3.29-4.403l-.24-.062-.03-.186C17.75 2.79 14.671 0 11 0l-.257.005zM11 1.49c3.15 0 5.779 2.575 6.09 5.946.032.356.309.638.657.671 1.583.15 2.798 1.562 2.798 3.305 0 1.714-1.224 3.156-2.765 3.304l-12.943-.003c-1.856-.151-3.382-1.922-3.382-4.037 0-2.004 1.331-3.663 3.126-3.974a.734.734 0 0 0 .578-.526C5.944 3.41 8.307 1.49 11 1.49z" fill-rule="nonzero"/>
    </g>
</svg>
