<svg width="73" height="65" viewBox="0 0 73 65" xmlns="http://www.w3.org/2000/svg">
    <g transform="translate(1 1)" stroke="#0B0C0C" stroke-width="2" fill="none" fill-rule="evenodd">
        <path d="M7.033 26.138v35.968M63.967 26.138v36.359"/>
        <rect x="12.726" y="38.202" width="12.057" height="10.723" rx="1"/>
        <rect x="46.887" y="38.202" width="12.057" height="10.723" rx="1"/>
        <path d="M30.113 38.202h10.774c.354 0 .641.287.641.642v18.124H29.472V38.844c0-.355.287-.642.641-.642z" fill-opacity=".25" fill="#0B0C0C"/>
        <rect x="24.783" y="56.968" width="22.104" height="5.362" rx="1"/>
        <path d="M60.003 4.658h6.716c.52.01.936.438.932.96v19.868c0 .36-.292.652-.652.652h-6.676a.652.652 0 0 1-.47-.196L37.015 2.282a.932.932 0 0 0-1.304 0l-23.236 23.66a.652.652 0 0 1-.463.196H4.671a.652.652 0 0 1-.652-.652V5.617a.954.954 0 0 1 .952-.959h28.386l2.328-2.376a.919.919 0 0 1 1.304 0l2.367 2.376 20.621.157" fill-opacity=".25" fill="#0B0C0C"/>
        <path d="M52.915.67h6.028V9.4a.648.648 0 0 1-.64.653h-4.747a.648.648 0 0 1-.64-.654V.67z" fill="#FFF" fill-rule="nonzero"/>
        <ellipse cx="35.835" cy="23.122" rx="5.024" ry="5.027"/>
        <path stroke-linecap="round" d="M0 62.665h71M49.566.335h12.057"/>
    </g>
</svg>
