<svg width="138" height="65" viewBox="0 0 138 65" xmlns="http://www.w3.org/2000/svg">
    <g transform="translate(1 1)" stroke-width="2" fill="none" fill-rule="evenodd">
        <path stroke="#B1B4B6" d="m7.28 26.009-.453 36.518"/>
        <path stroke="#B1B4B6" stroke-linecap="round" d="M0 62.672h135.613"/>
        <rect stroke="#B1B4B6" x="12.623" y="37.93" width="12.334" height="10.594" rx="1"/>
        <rect stroke="#B1B4B6" x="47.493" y="37.93" width="12.334" height="10.594" rx="1"/>
        <path d="M30.445 37.93h11.022c.362 0 .656.294.656.657v18.548H29.79V38.587c0-.363.294-.657.656-.657z" stroke="#B1B4B6"/>
        <rect stroke="#B1B4B6" x="24.688" y="57.135" width="22.535" height="5.537" rx="1"/>
        <path d="M60.28 4.394h6.762c.524.01.942.44.938.965v19.993a.657.657 0 0 1-.656.657h-6.709a.656.656 0 0 1-.473-.197L37.148 2.003a.938.938 0 0 0-1.313 0l-23.37 23.81a.656.656 0 0 1-.465.196H4.582a.657.657 0 0 1-.657-.657V5.36a.959.959 0 0 1 .946-.965h28.594l2.343-2.39a.925.925 0 0 1 1.313 0l2.383 2.39 20.763.158" stroke="#B1B4B6"/>
        <path d="M53.473.361h6.17V9.13a.657.657 0 0 1-.656.657H54.13a.657.657 0 0 1-.657-.657V.361z" stroke="#B1B4B6" fill="#FFF" fill-rule="nonzero"/>
        <path stroke="#B1B4B6" stroke-linecap="round" d="M50.526.361h12.065"/>
        <path stroke="#0B0C0C" d="M67.81 23.389v39.335M128.536 25.976l.125 36.551"/>
        <rect stroke="#0B0C0C" x="76.685" y="37.897" width="12.334" height="10.594" rx="1"/>
        <rect stroke="#0B0C0C" x="111.554" y="37.897" width="12.334" height="10.594" rx="1"/>
        <path d="M94.684 37.884h11.022c.362 0 .656.294.656.657v18.548H94.028V38.54c0-.363.294-.657.656-.657z" stroke="#0B0C0C" fill-opacity=".25" fill="#0B0C0C"/>
        <rect stroke="#0B0C0C" x="88.894" y="57.095" width="22.535" height="5.537" rx="1"/>
        <path d="M124.171 4.361h6.761c.524.01.943.441.94.966V25.32a.657.657 0 0 1-.657.656h-6.722a.656.656 0 0 1-.473-.203l-22.995-23.77a.932.932 0 0 0-1.313 0L76.317 25.78a.656.656 0 0 1-.466.197H68.46a.657.657 0 0 1-.657-.656V5.327a.959.959 0 0 1 .945-.966h28.595l2.323-2.358a.919.919 0 0 1 1.313 0l2.383 2.391 20.763.158" stroke="#0B0C0C" fill-opacity=".25" fill="#0B0C0C"/>
        <path d="M117.535.328h6.17v8.769a.657.657 0 0 1-.656.656h-4.858a.657.657 0 0 1-.656-.656V.328z" stroke="#0B0C0C" fill="#FFF" fill-rule="nonzero"/>
        <path stroke="#0B0C0C" stroke-linecap="round" d="M114.587.328h12.059M67.81 62.639H136"/>
        <ellipse stroke="#B1B4B6" cx="35.953" cy="22.515" rx="5.087" ry="5.09"/>
        <ellipse stroke="#0B0C0C" cx="100.198" cy="22.515" rx="5.087" ry="5.09"/>
    </g>
</svg>
