<svg width="165" height="106" viewBox="0 0 165 106" xmlns="http://www.w3.org/2000/svg">
    <g fill="none" fill-rule="evenodd">
        <path stroke="#979797" stroke-width="2" fill-opacity=".25" fill="#0B0C0C" d="m133.129 63.235-27.303 33.018H82.5l-3.536-1.376 4.998-15.133-2.999-13.132-9.227-9.388-12.904-3.21-13.892 4.19-6.904 9.725-1.855 9.736 1.855 9.909 5.258 8.68 7.872 5.257L61.478 105H102.403l6.137-2.55 5.483-7.573 5.454-5.68 5.61-7.824 5.148-5.098 2.894-4.119z"/>
        <path stroke="#0B0C0C" stroke-width="2" stroke-linecap="round" d="m9.707 59.077.143 20.391M154.926 59.077v19.702"/>
        <path d="M144.413 10.595h17.204c1.319.008 2.383.971 2.383 2.157V57.62c0 .814-.747 1.473-1.67 1.473h-17.1c-.453 0-.886-.161-1.2-.449L85.52 5.226c-.933-.84-2.463-.84-3.396 0L22.659 58.652c-.313.282-.743.44-1.191.44H2.67c-.923 0-1.67-.659-1.67-1.473V12.752c0-1.19 1.075-2.157 2.402-2.157H76.15l5.975-5.369c1.09-.85 2.31-.854 3.396 0l6.063 5.369 52.829.347" stroke="#0B0C0C" stroke-width="2" fill-opacity=".25" fill="#0B0C0C"/>
        <path d="M141.578 22.695h-13.537a1.08 1.08 0 0 1-1.077-1.084V1.541h15.691v20.07a1.08 1.08 0 0 1-1.077 1.084" fill="#FFF"/>
        <path d="M141.578 22.695h-13.537a1.08 1.08 0 0 1-1.077-1.084V1.541h15.691v20.07a1.08 1.08 0 0 1-1.077 1.084z" stroke="#0B0C0C" stroke-width="2"/>
        <path stroke="#0B0C0C" stroke-width="2" stroke-linecap="round" d="M119.463 1.542h30.695M65.46 80.323a4.832 4.832 0 0 0-.976-6.734c-2.646-1.985-6.708-2.1-8.364 1.228-1.447 2.913.373 10.21 3.68 12.691 4.136 3.102 9.986 2.242 13.067-1.92 3.853-5.202 1.708-15.815-3.46-19.694-6.46-4.846-15.687-3.568-20.417 3-4.62 6.413-4.352 18.547 3.724 24.606 10.095 7.575 22.225 6.56 29.748-3.602l22.276-25.373s6.864-11.62-1.248-24.182c0 0-2.708-5.83-11.102-8.447-7.558-2.355-15.777-.605-22.053 4.242-2.29 1.768-5.08 4.074-8.339 7.032 0 0-15.171 12.048-20.747 18.977 0 0-9.202 10.385-2.807 27.029 0 0 .203.436.608 1.16 4.725 8.467 13.63 13.705 23.275 13.88l38.425.697a10 10 0 0 0 7.836-3.563l22.666-26.962a8 8 0 0 0 1.877-5.148v-5.883h0c0-.042-.052-.062-.079-.03l-28.713 33.41a.532.532 0 0 1-.743.067c-1.088-.9-4.356-3.019-8.207.029a.538.538 0 0 1-.71-.022c-1.113-1.056-4.939-3.997-9.718-.085a.529.529 0 0 1-.616.055c-.759-.473-2.826-1.621-5.379-1.904"/>
        <path d="M105.826 62.148s2.91-2.943 7.966-.158a.534.534 0 0 0 .53 0c1.043-.627 5.167-2.775 8.74-.059a.529.529 0 0 0 .558.065c1.256-.629 6.367-2.825 9.51 1.24M38.995 65.66c8.591-12.682 24.062-15.452 35.717-6.105 9.324 7.478 12.388 21.762 5.516 31.908 0 0-4.735 8.522-16.07 6.859" stroke="#0B0C0C" stroke-width="2" stroke-linecap="round"/>
    </g>
</svg>
