<svg width="24" height="24" viewBox="0 0 24 24" xmlns="http://www.w3.org/2000/svg">
    <g fill="#626A6E" fill-rule="nonzero">
        <path d="M22.353 14.114c.328 0 .598.243.641.559l.006.088v2.76c0 1.623-2.19 2.718-4.788 2.718-2.525 0-4.663-1.033-4.783-2.58l-.005-.137V14.76a.647.647 0 0 1 1.288-.088l.006.088v2.76c0 .665 1.518 1.424 3.494 1.424 1.907 0 3.389-.708 3.489-1.354l.005-.07v-2.76c0-.358.29-.647.647-.647z"/>
        <path d="M22.353 16.875c.328 0 .598.243.641.559l.006.088v2.76C23 21.905 20.81 23 18.212 23c-2.525 0-4.663-1.033-4.783-2.58l-.005-.138v-2.76a.647.647 0 0 1 1.288-.088l.006.088v2.76c0 .665 1.518 1.424 3.494 1.424 1.907 0 3.389-.708 3.489-1.355l.005-.069v-2.76c0-.358.29-.647.647-.647z"/>
        <path d="M18.212 12.043c-2.599 0-4.788 1.095-4.788 2.718s2.19 2.717 4.788 2.717c2.598 0 4.788-1.094 4.788-2.717s-2.19-2.718-4.788-2.718zm0 1.294c1.975 0 3.494.76 3.494 1.424 0 .664-1.519 1.423-3.494 1.423-1.976 0-3.494-.759-3.494-1.423s1.518-1.424 3.494-1.424zM10.62 5.141c.327 0 .598.244.64.56l.007.087v4.832a.647.647 0 0 1-.56.64l-.087.007H5.443a.647.647 0 0 1-.088-1.289l.088-.005h4.53V5.788c0-.327.243-.598.559-.64l.088-.007z"/>
        <path d="M10.62 1c5.312 0 9.62 4.307 9.62 9.62a.647.647 0 1 1-1.295 0 8.326 8.326 0 1 0-7.044 8.227.647.647 0 1 1 .198 1.279c-.486.075-.98.113-1.48.113C5.308 20.24 1 15.932 1 10.62 1 5.308 5.307 1 10.62 1z"/>
    </g>
</svg>
