<svg width="24" height="24" viewBox="0 0 24 24" xmlns="http://www.w3.org/2000/svg">
    <g fill="#626A6E" fill-rule="nonzero">
        <path d="M17.89 1.266a6.082 6.082 0 0 1 2.06.223.75.75 0 0 1 .316 1.258L18.29 4.668l1.966 1.912 2.007-1.951a.75.75 0 0 1 1.203.222l.037.097c.2.655.28 1.34.234 2.039-.224 2.624-2.36 4.7-5.054 4.918a6.082 6.082 0 0 1-1.482-.088l-.123-.026-7.702 8.289-.074.075a2.085 2.085 0 0 1-.347.274c.03-.14.045-.283.045-.429v-1.721l7.279-7.83a.75.75 0 0 1 .654-.231l.102.021c.504.145 1.03.202 1.54.17 1.959-.159 3.506-1.663 3.667-3.535l.004-.137-1.466 1.427a.75.75 0 0 1-.954.077l-.092-.077-3.042-2.957a.75.75 0 0 1 0-1.076l1.411-1.373-.113.004-.194.021C16 3.016 14.59 4.386 14.353 6.105l-.022.193a4.159 4.159 0 0 0 .17 1.489.75.75 0 0 1-.222.781l-6.025 5.29A1.992 1.992 0 0 0 7 13.417h-.518l6.463-5.674-.02-.09a5.676 5.676 0 0 1-.102-1.171l.012-.298c.225-2.625 2.36-4.7 5.042-4.917z"/>
        <path d="M9.228 16.583a.75.75 0 0 1 .743.649l.007.101V20c0 1.666-2.23 2.75-4.864 2.75-2.552 0-4.725-1.017-4.858-2.596L.25 20v-2.667a.75.75 0 0 1 1.493-.101l.007.101V20c0 .543 1.454 1.25 3.364 1.25 1.833 0 3.247-.652 3.357-1.184L8.478 20v-2.667a.75.75 0 0 1 .75-.75z"/>
        <path d="M9.228 13.917a.75.75 0 0 1 .743.648l.007.102v2.666c0 1.667-2.23 2.75-4.864 2.75-2.552 0-4.725-1.017-4.858-2.595l-.006-.155v-2.666a.75.75 0 0 1 1.493-.102l.007.102v2.666c0 .543 1.454 1.25 3.364 1.25 1.833 0 3.247-.651 3.357-1.184l.007-.066v-2.666a.75.75 0 0 1 .75-.75z"/>
        <path d="M5.114 11.917C2.479 11.917.25 13 .25 14.667s2.23 2.75 4.864 2.75 4.864-1.084 4.864-2.75-2.23-2.75-4.864-2.75zm0 1.5c1.91 0 3.364.707 3.364 1.25s-1.454 1.25-3.364 1.25-3.364-.707-3.364-1.25 1.454-1.25 3.364-1.25zM18.572 12.333a.75.75 0 0 1 .967-.15l.09.066 2.958 2.52a3.377 3.377 0 0 1 .25 4.86l-.121.124a3.562 3.562 0 0 1-4.792.138l-.178-.166-3.292-3.488a.75.75 0 0 1 1.01-1.104l.081.075 3.275 3.47c.785.763 2.065.763 2.84.01l.08-.083a1.873 1.873 0 0 0-.014-2.585l-.12-.116-2.95-2.514a.75.75 0 0 1-.084-1.057zM6.705 1.462a.75.75 0 0 1 .954-.076l.092.076 2.4 2.334a.75.75 0 0 1 .217.417l.01.12V5.35l3.01 2.925c.27.263.3.679.086.976l-.072.085a.75.75 0 0 1-.975.086l-.085-.071-3.237-3.147a.75.75 0 0 1-.217-.417l-.01-.12V4.65l-1.65-1.605-1.667 1.621L7.19 6.25h1.067a.75.75 0 0 1 .433.138l.09.074 3.165 3.078a.75.75 0 0 1-.96 1.147l-.085-.071L7.952 7.75H6.885a.75.75 0 0 1-.433-.138l-.09-.074-2.4-2.334a.75.75 0 0 1-.075-.99l.075-.085 2.743-2.667z"/>
    </g>
</svg>
