<svg width="62" height="66" viewBox="0 0 62 66" xmlns="http://www.w3.org/2000/svg">
    <g stroke="#0B0C0C" stroke-width="2" fill="none" fill-rule="evenodd">
        <path fill="#FFF" fill-rule="nonzero" d="M13.04 3.767v35.73l43.417 18.108L61 55.232v-40.78L18.24 2z"/>
        <path d="M56.457 57.605V17.287L13.04 3.557M56.113 16.768 61 14.451M13.04 14.225l43.417 13.962M13.04 20.533l43.417 14.963M13.04 26.785l43.417 16.206M13.04 33.437l43.417 17.331M18.747 9.577v6.482M33.536 13.763v7.053M48.765 18.432v7.058M24.901 18.042v6.58M40.679 23.117v6.801M18.747 22.501v6.287M31.951 27.052v6.575M48.099 32.615v7.109M24.901 31.212v6.843M39.427 36.632v7.335M18.747 35.712v6.031M31.951 40.982v6.401M48.099 47.383v6.734"/>
        <path fill="#B1B4B6" fill-rule="nonzero" d="m5.636 6.258 7.835-2.64 42.986 13.253v40.718l-7.497 3.945L1 42.22V7.871z"/>
        <path fill="#FFF" fill-rule="nonzero" d="M1 7.871v37.324L44.412 64l4.548-2.466V19.187L5.636 6.258z"/>
        <path d="M44.412 64V20.98L1 7.871M44.412 20.98l4.548-1.793"/>
    </g>
</svg>
