<svg width="62" height="66" viewBox="0 0 62 66" xmlns="http://www.w3.org/2000/svg">
    <g stroke="#0B0C0C" stroke-width="2" fill="none" fill-rule="evenodd">
        <path d="M13.04 3.62v37.408l43.413 18.853L61 57.41V14.96L17.676 2z"/>
        <path d="M56.453 59.88V16.758L13.04 3.62M56.453 16.757 61 14.961M18.748 9.882v6.753M33.533 14.241v7.344M48.762 19.104v7.344M24.901 18.695v6.852M40.68 23.977v7.084M18.748 23.34v6.545M31.952 28.076v6.841M48.095 33.867v7.4M24.901 32.405v7.125M39.425 38.049v7.635M18.748 37.091v6.278M31.952 42.578v6.663M48.095 49.241v7.01"/>
        <path fill="#FFF" d="M1 7.74v37.408L44.413 64l4.547-2.47V19.08L5.636 6.12z"/>
        <path d="M44.413 64V20.876L1 7.74M44.413 20.876l4.547-1.796"/>
    </g>
</svg>
