<svg width="60" height="65" viewBox="0 0 60 65" xmlns="http://www.w3.org/2000/svg">
    <g stroke="#0B0C0C" stroke-width="2" fill="none" fill-rule="evenodd">
        <path d="M58.5 56.44V15.084L13.875 1M13.875 11.944 58.5 26.265M13.875 18.414 58.5 33.762M13.875 24.826 58.5 41.45M13.875 31.65 58.5 49.427M19.741 7.175v6.65M34.941 11.469v7.235M50.594 16.259v7.24M26.066 15.859v6.749M42.283 21.064v6.976M19.741 20.432v6.449M33.312 25.1v6.745M49.909 30.807v7.292M26.066 29.368v7.018M40.997 34.927v7.524M19.741 33.984v6.186M33.312 39.39v6.565M49.909 45.955v6.907"/>
        <path fill="#B1B4B6" fill-rule="nonzero" d="m6.264 3.771 8.054-2.708L58.5 14.657v41.767l-7.705 4.047L1.5 40.66V5.426z"/>
        <path fill="#FFF" fill-rule="nonzero" d="M1.5 5.426V43.71L46.12 63l4.675-2.53V17.034L6.265 3.771z"/>
        <path d="M46.12 63V18.872L1.5 5.426M46.12 18.872l4.675-1.839"/>
    </g>
</svg>
