<?xml version="1.0" encoding="UTF-8"?>
<svg width="63px" height="116px" viewBox="0 0 63 116" version="1.1" xmlns="http://www.w3.org/2000/svg" xmlns:xlink="http://www.w3.org/1999/xlink">
    <title>Group 27</title>
    <g id="Page-1" stroke="none" stroke-width="1" fill="none" fill-rule="evenodd">
        <g id="What-fuel-do-you-use-for-your-primary-heating-system?" transform="translate(-760.000000, -523.000000)">
            <g id="Group-27" transform="translate(762.000000, 525.000000)">
                <path d="M44.6340924,101 L14.3659076,101 C6.43083181,101 0,94.5080505 0,86.5006452 L0,30.5003086 C0,22.4919495 6.43083181,16 14.3659076,16 L44.6340924,16 C52.5682233,16 59,22.4919495 59,30.5003086 L59,86.5006452 C59,94.5080505 52.5682233,101 44.6340924,101 Z" id="Stroke-1" stroke="#03C2EA" stroke-width="2.5"></path>
                <line x1="0" y1="58.5" x2="59" y2="58.5" id="Stroke-3" stroke="#03C2EA" stroke-width="2.5"></line>
                <path d="M49,59 C49,69.4937556 40.4935431,78 29.9995254,78 C19.5064569,78 11,69.4937556 11,59 C11,48.5062444 19.5064569,40 29.9995254,40 C40.4935431,40 49,48.5062444 49,59" id="Fill-5" fill="#FFFFFF"></path>
                <path d="M49,59.5 C49,70.2699071 40.269689,79 29.4995129,79 C18.730311,79 10,70.2699071 10,59.5 C10,48.7300929 18.730311,40 29.4995129,40 C40.269689,40 49,48.7300929 49,59.5 Z" id="Stroke-7" stroke="#03C2EA" stroke-width="2.5" fill="#CDF3FB"></path>
                <path d="M45.2033221,112 L14.7966779,112 C12.6999625,112 11,110.28095 11,108.158547 L11,101 L49,101 L49,108.158547 C49,110.28095 47.3009866,112 45.2033221,112 Z" id="Stroke-9" stroke="#03C2EA" stroke-width="2.5" fill="#CDF3FB"></path>
                <line x1="18.5" y1="4" x2="18.5" y2="16" id="Stroke-11" stroke="#03C2EA" stroke-width="2.5"></line>
                <path d="M46.9917621,4 L12.0082379,4 C10.8988054,4 10,3.10488159 10,2.00096665 C10,0.896085065 10.8988054,0 12.0082379,0 L46.9917621,0 C48.1011946,0 49,0.896085065 49,2.00096665 C49,3.10488159 48.1011946,4 46.9917621,4 Z" id="Stroke-13" stroke="#03C2EA" stroke-width="2.5" fill="#CDF3FB"></path>
                <line x1="13.5" y1="4" x2="13.5" y2="16" id="Stroke-15" stroke="#03C2EA" stroke-width="2.5"></line>
                <line x1="41.5" y1="4" x2="41.5" y2="16" id="Stroke-17" stroke="#03C2EA" stroke-width="2.5"></line>
                <line x1="45.5" y1="4" x2="45.5" y2="16" id="Stroke-19" stroke="#03C2EA" stroke-width="2.5"></line>
                <line x1="29.5" y1="16" x2="29.5" y2="10" id="Stroke-21" stroke="#03C2EA" stroke-width="2.5"></line>
                <line x1="25" y1="9.5" x2="34" y2="9.5" id="Stroke-23" stroke="#03C2EA" stroke-width="2.5" stroke-linecap="round"></line>
                <path d="M31.6589915,56.5706268 C32.3185361,52.6150627 31.3033209,49.7581872 28.6133461,48 C28.6133461,49.8467392 27.6530354,51.6559866 25.9292415,53.239212 C24.2064836,54.8213662 20.9660825,58.3755894 21.0002684,62.1751161 C21.0272026,65.2462306 22.6308282,69.0007671 26.3342916,70.333333 C26.4057711,66.7930354 29.2380142,65.3415669 29.3747574,61.7766318 C31.479775,63.9029527 32.3851812,66.8744461 32.4162592,70.2829869 C35.0848247,69.2985592 37.3928853,66.9440738 37.7192044,62.8788909 C38.0620985,58.5973267 35.2790927,53.239212 31.6589915,52.4163109" id="Stroke-25" stroke="#03C2EA" stroke-width="2.5" fill="#FFFFFF" stroke-linecap="round" stroke-linejoin="round"></path>
            </g>
        </g>
    </g>
</svg>