<?xml version="1.0" encoding="UTF-8"?>
<svg width="71px" height="120px" viewBox="0 0 71 120" version="1.1" xmlns="http://www.w3.org/2000/svg" xmlns:xlink="http://www.w3.org/1999/xlink">
    <title>Group 3</title>
    <g id="Page-1" stroke="none" stroke-width="1" fill="none" fill-rule="evenodd">
        <g id="What-fuel-do-you-use-for-your-primary-heating-system?" transform="translate(-350.000000, -518.000000)" stroke="#03C2EA" stroke-width="2.5">
            <g id="Group-3" transform="translate(352.000000, 520.000000)">
                <path d="M49.0193021,71.5697167 C48.0596923,74.0255307 46.6642326,74.8405916 46.0571892,75.0895396 C45.9267118,75.1426957 45.7860554,75.0408131 45.8045628,74.9070368 C45.9729804,73.7296282 46.2431888,69.0013888 41.1601252,62.9947442 C39.7766953,61.2556522 38.1110273,59.7247552 36.7109408,57.9962944 C34.6575423,55.4616321 33.9838721,52.6027173 35.0230639,49.4824515 C35.3228841,48.5823407 36.544374,47.3526618 36.3065536,46.9309564 C36.1788524,46.7050428 35.6180775,46.8290738 35.3839586,46.8804581 C33.1325306,47.3694946 31.3946837,48.5690517 30.1019402,50.3843341 C28.3816753,52.800281 27.6006621,55.559971 26.9880664,58.3648437 C25.7665765,63.9577564 25.0410855,66.7316213 24.8041905,68.8747 C24.685743,69.9431386 24.5746985,71.2436923 24.0731473,71.3340578 C23.4272383,71.4510013 22.2566438,69.5400378 21.9799578,67.7247554 C21.8763163,67.039927 21.8809431,66.2470145 21.8864953,65.2760288 C21.8901968,64.529185 22.2399871,63.1568704 21.950346,63.4820089 C14.3761833,72.0197721 18.1331901,81.237934 20.8324976,84.6390415 C23.1968209,87.6193295 26.3726946,89.1360516 26.3726946,89.1360516 C27.2878866,89.5754757 28.2650785,89.9289641 29.3070464,90.1876574 C32.0119062,90.8574248 34.7352734,90.7227626 37.474372,90.4569818 C41.3655576,90.0795732 44.3443272,88.2988422 46.4847106,85.1989529 C48.7305863,81.9449107 49.5661965,79.0620757 49.5199279,74.4995064 L49.37557,71.6166713 C49.3653909,71.4244232 49.088705,71.3898717 49.0193021,71.5697167 Z M19.2905751,28.9982068 C20.322701,26.2676296 21.8690369,23.0301469 22.5583562,21.6931178 C24.3585543,18.0670666 26.7452297,13.9067336 29.9120218,9.52827239 C32.5071607,5.94107804 35.1449188,2.87050327 37.6177591,0.286522307 C38.1857064,-0.306044755 39.2261708,0.08252381 39.2270973,0.885271141 C39.2289503,3.29351314 39.3966476,5.33791366 39.5875075,6.92751233 C39.8784299,9.34811787 41.0180304,17.3950196 46.2175732,26.9679361 C47.737967,29.7682791 47.3460556,28.5389894 50.3886962,33.6380688 C55.0823676,41.504816 57.6691679,45.9150692 58.9208754,51.64204 C59.783451,55.5904265 60.0567698,60.3724692 59.4517625,62.2322996 C59.3952457,62.403623 59.0441005,63.4342128 59.247005,63.531355 C59.4193348,63.611718 59.9066761,62.9864759 60.1068011,62.7286076 C62.2738949,59.9220829 63.2735932,56.6951976 63.2735932,56.6951976 C63.4014508,56.2819019 65.0274661,50.9991356 65.1645887,50.4798667 C65.1692213,50.4622045 65.2044284,50.3270886 65.2952259,50.1672457 C65.3767583,50.025948 65.4443931,49.9084943 65.5064689,49.9084943 C65.6787987,49.9084943 65.7964648,50.8039682 65.9687946,51.7109226 C66.1540955,52.6938244 66.2967772,53.1291979 66.379236,53.522182 C67.8625696,60.5879481 66.2217303,67.9009851 66.2217303,67.9018682 C65.0960274,72.9232338 63.1114549,76.4494935 62.5574053,77.4023696 C61.3233014,79.5271332 58.7828263,83.7907901 53.806571,87.0653634 C51.8701767,88.3388085 50.1950567,89.0497124 49.626183,89.2819704 C48.7404448,89.6440457 46.6687809,90.4282477 42.2660318,91.0349445 C39.7070266,91.3890718 36.5198514,91.8120816 32.2866527,91.5868885 C29.4515491,91.4358766 25.6843821,91.2362937 21.1324659,89.5786955 C15.7828293,87.630554 12.3723665,84.7701595 10.6416563,83.2927159 C8.95912422,81.8558953 7.10240935,80.269829 5.37262558,77.6346277 C3.14252943,74.2417176 2.47451974,71.1667273 1.82318713,68.0263868 C1.49149854,66.4235415 0.741956462,62.3267924 1.03936438,56.8364952 C1.27562301,52.4907091 3.29262315,46.8282053 7.32569692,35.5005485 C7.32569692,35.5005485 7.99092709,33.6310039 8.35041081,33.7034189 C8.94337364,33.8235219 8.11229917,38.4792798 8.90723997,44.8138306 C9.15369015,46.7734525 9.71144581,50.4224646 11.0335676,50.4489579 C12.1268429,50.4719187 12.2454354,49.9773769 12.5011506,49.474004 C12.8143091,48.8611254 13.0561268,47.5488234 13.2247506,46.9200488 C13.8436556,44.6133645 15.1250112,40.0141257 19.2905751,28.9982068 Z" id="Stroke-1" fill="#CDF3FB"></path>
                <path d="M0.932173913,116.318745 L65.8627478,116.318745 C66.3773078,116.318745 66.7949217,115.900353 66.7949217,115.382745 L66.7949217,107.499753 C66.7949217,106.257681 66.4518817,105.014673 65.69216,104.033745 C64.775833,102.850641 63.103513,101.667537 60.0571687,101.449449 C59.5146435,101.411073 59.04576,101.840697 59.04576,102.386385 L59.04576,106.867953 C59.04576,107.384625 58.6281461,107.803953 58.1135861,107.803953 L53.2112835,107.803953 C52.6976557,107.803953 52.2791096,107.384625 52.2791096,106.867953 L52.2791096,102.349881 C52.2791096,101.833209 51.8624278,101.413881 51.3469357,101.413881 L45.4649183,101.413881 C44.9494261,101.413881 44.5327443,101.833209 44.5327443,102.349881 L44.5327443,106.867953 C44.5327443,107.384625 44.1151304,107.803953 43.6005704,107.803953 L38.6870817,107.803953 C38.1725217,107.803953 37.7549078,107.384625 37.7549078,106.867953 L37.7549078,102.349881 C37.7549078,101.833209 37.3372939,101.413881 36.8227339,101.413881 L30.9556313,101.413881 C30.4410713,101.413881 30.0234574,101.833209 30.0234574,102.349881 L30.0234574,106.867953 C30.0234574,107.384625 29.6067757,107.803953 29.0912835,107.803953 L23.9242435,107.803953 C23.4096835,107.803953 22.9920696,107.384625 22.9920696,106.867953 L22.9920696,102.349881 C22.9920696,101.833209 22.5744557,101.413881 22.0598957,101.413881 L16.4789704,101.413881 C15.9634783,101.413881 15.5467965,101.833209 15.5467965,102.349881 L15.5467965,106.867953 C15.5467965,107.384625 15.1291826,107.803953 14.6146226,107.803953 L9.30216348,107.803953 C8.7866713,107.803953 8.36998957,107.384625 8.36998957,106.867953 L8.36998957,102.336777 C8.36998957,101.807937 7.93746087,101.379249 7.41078261,101.400777 C5.8065113,101.465361 2.57839304,101.988585 0.758789565,104.990337 C0.229314783,105.864561 1.27897692e-13,106.891353 1.27897692e-13,107.914401 L1.27897692e-13,115.382745 C1.27897692e-13,115.900353 0.417613913,116.318745 0.932173913,116.318745 Z" id="Stroke-3"></path>
            </g>
        </g>
    </g>
</svg>