<?xml version="1.0" encoding="UTF-8"?>
<svg width="61px" height="132px" viewBox="0 0 61 132" version="1.1" xmlns="http://www.w3.org/2000/svg" xmlns:xlink="http://www.w3.org/1999/xlink">
    <title>Group 19</title>
    <g id="Page-1" stroke="none" stroke-width="1" fill="none" fill-rule="evenodd">
        <g id="What-fuel-do-you-use-for-your-primary-heating-system?" transform="translate(-997.000000, -507.000000)" stroke="#03C2EA" stroke-width="2.5">
            <g id="Group-19" transform="translate(998.000000, 508.000000)">
                <path d="M5.44999024,75.0909854 L5.44999024,91.5663024 C5.44999024,95.2354732 6.18296585,98.8788878 7.70150244,102.220741 C7.89789268,102.655376 8.11145366,103.096449 8.34218537,103.541815 C11.1174049,108.893717 16.7290146,112.17762 22.7570146,112.17762 L34.9375024,112.17762 C40.2303805,112.17762 45.2463805,109.654595 48.2630634,105.303961 C48.3135024,105.228839 48.3660878,105.153717 48.4186732,105.076449 C51.2539902,100.892156 52.6136976,95.8804488 52.6136976,90.8258146 L52.6136976,75.0909854" id="Stroke-11" fill="#CDF3FB"></path>
                <path d="M55.6490537,75.1203902 L2.41549268,75.1203902 C1.22963902,75.1203902 0.26915122,74.1588293 0.26915122,72.9740488 L0.26915122,64.1922927 C0.26915122,63.0075122 1.22963902,62.0459512 2.41549268,62.0459512 L55.6490537,62.0459512 C56.8338341,62.0459512 57.7953951,63.0075122 57.7953951,64.1922927 L57.7953951,72.9740488 C57.7953951,74.1588293 56.8338341,75.1203902 55.6490537,75.1203902 Z" id="Stroke-1"></path>
                <path d="M37.8012585,93.6335512 L20.0746244,93.6335512 C19.4833073,93.6335512 19.0014537,93.1538439 19.0014537,92.5603805 L19.0014537,86.2157951 C19.0014537,85.6223317 19.4833073,85.1426244 20.0746244,85.1426244 L37.8012585,85.1426244 C38.3936488,85.1426244 38.8744293,85.6223317 38.8744293,86.2157951 L38.8744293,92.5603805 C38.8744293,93.1538439 38.3936488,93.6335512 37.8012585,93.6335512 Z" id="Stroke-3" fill="#FFFFFF"></path>
                <path d="M31.8411902,120.325561 L26.019239,120.325561 C23.6443122,120.325561 21.7190439,118.400293 21.7190439,116.025366 L21.7190439,112.146927 L36.1413854,112.146927 L36.1413854,116.025366 C36.1413854,118.400293 34.2161171,120.325561 31.8411902,120.325561 Z" id="Stroke-5"></path>
                <path d="M19.098361,43.8014049 L19.098361,62.0463805 L11.5582634,62.0463805 L11.5582634,43.8014049 C11.5582634,41.7194537 13.246361,40.0302829 15.327239,40.0302829 C17.4102634,40.0302829 19.098361,41.7194537 19.098361,43.8014049 Z" id="Stroke-7"></path>
                <path d="M46.5102537,43.8014049 L46.5102537,62.0463805 L38.9701561,62.0463805 L38.9701561,43.8014049 C38.9701561,41.7194537 40.6582537,40.0302829 42.7402049,40.0302829 C44.8232293,40.0302829 46.5102537,41.7194537 46.5102537,43.8014049 Z" id="Stroke-9"></path>
                <path d="M30.4590051,0.268292683 L37.1075568,0.268292683 C37.5418503,0.268292683 37.8342746,0.712237197 37.6624874,1.11082216 L31.0457839,16.4404193 C30.8739967,16.8390042 31.1654559,17.2839138 31.6007146,17.2839138 L41.159033,17.2839138 C41.637721,17.2839138 41.9262849,17.8147171 41.6657088,18.2161973 L28.5761013,38.4455907 C28.1968183,39.0314044 27.2905924,38.6125524 27.4913325,37.9437404 L31.8497096,23.3900811 C31.9655212,23.0079028 31.6817827,22.6199339 31.2822327,22.6131782 L23.1918264,22.4780646 C22.7806952,22.4703439 22.4959917,22.0650032 22.6311052,21.6770343 L29.8886329,0.674598423 C29.9725963,0.431394037 30.2013243,0.268292683 30.4590051,0.268292683 Z" id="Stroke-13" fill="#CDF3FB"></path>
                <line x1="24.9462829" y1="120.325561" x2="24.9462829" y2="128.910927" id="Stroke-15" stroke-linecap="round"></line>
                <line x1="32.914361" y1="120.325561" x2="32.914361" y2="128.910927" id="Stroke-17" stroke-linecap="round"></line>
            </g>
        </g>
    </g>
</svg>