<?xml version="1.0" encoding="UTF-8"?>
<svg width="90px" height="116px" viewBox="0 0 90 116" version="1.1" xmlns="http://www.w3.org/2000/svg" xmlns:xlink="http://www.w3.org/1999/xlink">
    <title>Group 4</title>
    <g id="Page-1" stroke="none" stroke-width="1" fill="none" fill-rule="evenodd">
        <g id="What-fuel-do-you-use-for-your-primary-heating-system?" transform="translate(-542.000000, -523.000000)" stroke="#03C2EA" stroke-width="2.5">
            <g id="Group-4" transform="translate(543.000000, 525.000000)">
                <path d="M35.9856791,16.6727373 L46.1410722,0.515001077 C46.3429295,0.193829727 46.6906944,0 47.0636914,0 L78.4064138,0 C83.2531814,0 87.1828149,4.03548984 87.1828149,9.01533613 L87.1828149,25.6880734 L72.8476169,16.440367 L72.8476169,5.13761468 L48.614306,5.13761468 L42.1293354,16.6727373 L35.9856791,16.6727373 Z" id="Stroke-9" fill="#CDF3FB"></path>
                <path d="M14.6911183,8.50919065 L5.26033248,17.9720522 C4.8133162,18.4205888 4.08984962,18.4208084 3.64310466,17.9725431 L1.40595213,15.7277771 C0.960350087,15.2795114 0.960569703,14.5535835 1.40644271,14.106194 L10.8372285,4.64333243 C11.2842448,4.19479578 12.0077114,4.19457616 12.4544563,4.64284149 L14.6916088,6.88760752 C15.1372109,7.3358732 15.1369916,8.06065435 14.6911183,8.50919065 Z" id="Stroke-3" fill="#CDF3FB" transform="translate(8.048781, 11.307692) rotate(-5.000000) translate(-8.048781, -11.307692) "></path>
                <line x1="6.97560976" y1="17.7692308" x2="13.4146341" y2="23.1538462" id="Stroke-5"></line>
                <line x1="13.4146341" y1="9.15384615" x2="20.6265384" y2="16.440367" id="Stroke-7"></line>
                <path d="M42.1293354,16.440367 L48.5520258,5.68065318 C48.7527697,5.3441692 49.1174545,5.13761468 49.5111356,5.13761468 L71.7323729,5.13761468 C72.3479876,5.13761468 72.8476169,5.63512235 72.8476169,6.24812286 L72.8476169,16.440367" id="Stroke-11"></path>
                <path d="M78.388954,112 L21.2288576,112 C16.3724479,112 12.4349966,107.995992 12.4349966,103.057493 L12.4349966,25.3828743 C12.4349966,24.1476905 12.6812248,22.9706329 13.1253147,21.9008855 C14.4608824,18.6916432 17.5860007,16.440367 21.2288576,16.440367 L78.388954,16.440367 C83.2453637,16.440367 87.1828149,20.4432568 87.1828149,25.3828743 L87.1828149,103.057493 C87.1828149,107.995992 83.2453637,112 78.388954,112 Z" id="Stroke-1" fill="#FFFFFF"></path>
                <g id="Group-2" transform="translate(19.602596, 28.770642)">
                    <path d="M46.4984611,60.6238532 L15.9620446,60.6238532 C13.3670069,60.6238532 11.2633699,58.5141348 11.2633699,55.911595 L11.2633699,14.9863801 C11.2633699,14.3362989 11.3947782,13.7172267 11.6333008,13.1524201 C12.3455558,11.461323 14.0152142,10.2752294 15.9620446,10.2752294 L46.4984611,10.2752294 C49.0934988,10.2752294 51.1971358,12.3838403 51.1971358,14.9863801 L51.1971358,55.911595 C51.1971358,58.5141348 49.0934988,60.6238532 46.4984611,60.6238532 Z" id="Stroke-19" fill="#CDF3FB"></path>
                    <g id="Group" transform="translate(23.324234, 23.998589)" stroke-linecap="round">
                        <path d="M0,13.3411369 C0,8.19015228 8.03260551,0 8.03260551,0 C8.03260551,0 16.065211,8.19015228 16.065211,13.3411369 C16.065211,18.5296779 11.9756259,21.4951774 8.03260551,21.4951774 C4.08958516,21.4951774 0,18.5296779 0,13.3411369 Z" id="Stroke-13" fill="#FFFFFF"></path>
                        <path d="M8.03260551,14.7779345 C7.99869615,14.7779345 5.35507034,14.7452153 5.35507034,12.0910373" id="Stroke-15"></path>
                    </g>
                    <line x1="49.6612217" y1="60.1100917" x2="62.4605057" y2="71.9266055" id="Stroke-21" stroke-linecap="round"></line>
                    <line x1="0" y1="0" x2="11.7753412" y2="12.8440367" id="Stroke-23" stroke-linecap="round"></line>
                    <line x1="11.7753412" y1="60.1100917" x2="1.02394272" y2="71.9266055" id="Stroke-25" stroke-linecap="round"></line>
                    <line x1="61.436563" y1="0" x2="50.6851645" y2="10.7889908" id="Stroke-27" stroke-linecap="round"></line>
                </g>
            </g>
        </g>
    </g>
</svg>