<svg xmlns="http://www.w3.org/2000/svg" width="1247" height="278" viewBox="0 0 1247 278">
    <g fill="none" fill-rule="evenodd">
        <path stroke="#ECEFF3" stroke-linecap="round" stroke-width="10" d="M38 219L1209 219" transform="translate(0 2)"/>
        <g>
            <path stroke="#03C2EA" stroke-width="5" d="M25 88L25 213M220 88L220 213" transform="translate(0 2) translate(197)"/>
            <path stroke="#03C2EA" stroke-linecap="round" stroke-width="5" d="M0 213L244 213" transform="translate(0 2) translate(197)"/>
            <path fill="#CCF3FB" stroke="#03C2EA" stroke-width="5" d="M205.803 15.15h23.01c1.763.013 3.187 1.48 3.187 3.285v68.321c0 1.24-1 2.244-2.233 2.244h-22.872c-.605 0-1.184-.247-1.605-.684L127.042 6.974c-1.25-1.279-3.295-1.279-4.544 0L42.97 88.33c-.421.43-.996.67-1.594.67H16.233C15 89 14 87.996 14 86.756v-68.32c0-1.817 1.44-3.287 3.213-3.287h97.294l7.991-8.175c1.46-1.297 3.089-1.3 4.544 0l8.107 8.175 70.654.53" transform="translate(0 2) translate(197)"/>
            <path fill="#FFF" d="M201.019 33H183.98c-1.093 0-1.981-.885-1.981-1.976V1h21v30.024c0 1.09-.888 1.976-1.981 1.976" transform="translate(0 2) translate(197)"/>
            <path stroke="#03C2EA" stroke-width="5" d="M201.019 33H183.98c-1.093 0-1.981-.885-1.981-1.976V1h21v30.024c0 1.09-.888 1.976-1.981 1.976z" transform="translate(0 2) translate(197)"/>
            <path stroke="#03C2EA" stroke-linecap="round" stroke-width="5" d="M172 1L213 1" transform="translate(0 2) translate(197)"/>
            <g stroke="#03C2EA" stroke-linecap="round" stroke-width="5">
                <path d="M0 11l13.211-9.715c2.476-1.82 5.707-1.697 8.067.307l6.914 5.867c2.475 2.101 5.885 2.123 8.383.06l7.198-5.95c2.402-1.987 5.661-2.048 8.123-.152l8.132 6.265c2.554 1.969 5.956 1.821 8.366-.36l5.834-5.285c2.467-2.235 5.965-2.33 8.528-.234L94 11M0 30l13.211-9.714c2.476-1.82 5.707-1.7 8.067.307l6.914 5.866c2.475 2.101 5.885 2.125 8.383.059l7.198-5.95c2.402-1.988 5.661-2.047 8.123-.15l8.132 6.265c2.554 1.968 5.956 1.822 8.366-.362l5.834-5.283c2.467-2.235 5.965-2.33 8.528-.234L94 30M0 47l13.211-9.715c2.476-1.82 5.707-1.697 8.067.307l6.914 5.867c2.475 2.101 5.885 2.123 8.383.06l7.198-5.95c2.402-1.987 5.661-2.048 8.123-.152l8.132 6.265c2.554 1.969 5.956 1.821 8.366-.36l5.834-5.285c2.467-2.235 5.965-2.33 8.528-.234L94 47" transform="translate(0 2) translate(197) translate(268 133)"/>
            </g>
            <g stroke="#03C2EA" stroke-linecap="round" stroke-width="5">
                <path d="M0 33C0 14.773 14.745 0 32.936 0 46.208 0 57.788 8.216 63 19.552" transform="translate(0 2) translate(197) translate(89 123)"/>
                <path d="M66 1L63.401 20 44 17.453" transform="translate(0 2) translate(197) translate(89 123)"/>
                <g>
                    <path d="M66 0c0 18.227-14.745 33-32.934 33C19.792 33 8.212 24.784 3 13.448" transform="translate(0 2) translate(197) translate(89 123) translate(0 33)"/>
                    <path d="M0 32L2.599 13 22 15.547" transform="translate(0 2) translate(197) translate(89 123) translate(0 33)"/>
                </g>
            </g>
            <path stroke="#03C2EA" stroke-linecap="round" stroke-width="5" d="M134.864 52s-6.444 10.07 0 23.495c0 0 7.056 11.415 0 24.505M121.864 52s-6.444 10.07 0 23.495c0 0 7.056 11.415 0 24.505M107.863 52s-6.442 10.07 0 23.495c0 0 7.058 11.415 0 24.505" transform="translate(0 2) translate(197)"/>
            <g stroke="#03C2EA" stroke-linecap="round" stroke-linejoin="round" stroke-width="5">
                <path d="M11.486 44.836L48.323 8" transform="translate(0 2) translate(197) translate(191.937 130.082) scale(-1 1) rotate(45 0 -45.777)"/>
                <path d="M4 17.09L22.537 17.209 22.656 35.746" transform="translate(0 2) translate(197) translate(191.937 130.082) scale(-1 1) rotate(45 0 -5.758)"/>
            </g>
        </g>
        <g>
            <path stroke="#03C2EA" stroke-linecap="round" stroke-width="5" d="M0 231L23 231M84 231L95 231M228 231L239 231M145 231L156 231M37 239L73 239M172 239L214 239M0 261.574l8.412 8.706c3.422 3.543 8.972 3.543 12.395 0l5.3-5.485c3.424-3.542 8.974-3.542 12.396 0l5.337 5.522c3.423 3.545 8.973 3.545 12.395 0l4.486-4.642c3.424-3.545 8.973-3.545 12.397 0l4.418 4.573c3.424 3.544 8.973 3.544 12.397 0l5.203-5.387c3.424-3.542 8.973-3.542 12.397 0l5.294 5.48c3.422 3.545 8.974 3.545 12.397 0l4.942-5.114c3.422-3.542 8.972-3.542 12.395 0l4.815 4.984c3.422 3.542 8.973 3.542 12.395 0l5.738-5.941c3.423-3.543 8.975-3.543 12.397 0l5.239 5.421c3.422 3.543 8.972 3.543 12.395 0l5.829-6.033c3.424-3.544 8.973-3.544 12.397 0l6.424 6.649c3.422 3.542 8.972 3.542 12.395 0L243 261.574" transform="translate(0 2) translate(806)"/>
            <g stroke="#03C2EA" stroke-linecap="round" stroke-width="5">
                <path d="M37.34 0s-7.515 12.589 0 29.37c0 0 8.235 14.265 0 30.63M20.34 0s-7.515 12.589 0 29.37c0 0 8.235 14.265 0 30.63M3.34 0s-7.516 12.589 0 29.37c0 0 8.234 14.265 0 30.63" transform="translate(0 2) translate(806) translate(101.485 81)"/>
            </g>
            <path stroke="#03C2EA" stroke-width="5" d="M24 88L24 212M218 88L218 212" transform="translate(0 2) translate(806)"/>
            <path stroke="#03C2EA" stroke-linecap="round" stroke-width="5" d="M0.485 213L243.485 213" transform="translate(0 2) translate(806)"/>
            <path fill="#CCF3FB" stroke="#03C2EA" stroke-width="5" d="M203.804 15.04h23.008c1.766.013 3.188 1.461 3.188 3.245v67.498c0 1.225-.998 2.217-2.231 2.217h-22.872c-.606 0-1.186-.244-1.606-.676L125.043 6.962c-1.25-1.263-3.295-1.263-4.544 0L40.97 87.338c-.421.424-.995.662-1.595.662h-25.14C13 88 12 87.008 12 85.783V18.285c0-1.794 1.44-3.246 3.211-3.246h97.297l7.991-8.077c1.46-1.28 3.087-1.285 4.544 0l8.106 8.077 70.655.523" transform="translate(0 2) translate(806)"/>
            <path fill="#FFF" d="M199.019 33H181.98c-1.091 0-1.981-.885-1.981-1.976V1h21v30.024c0 1.09-.886 1.976-1.981 1.976" transform="translate(0 2) translate(806)"/>
            <path stroke="#03C2EA" stroke-width="5" d="M199.019 33H181.98c-1.091 0-1.981-.885-1.981-1.976V1h21v30.024c0 1.09-.886 1.976-1.981 1.976z" transform="translate(0 2) translate(806)"/>
            <path stroke="#03C2EA" stroke-linecap="round" stroke-width="5" d="M170 1L211 1" transform="translate(0 2) translate(806)"/>
            <g stroke="#03C2EA" stroke-linecap="round" stroke-linejoin="round" stroke-width="5">
                <path d="M16.564 71.176L75.651 12.68" transform="translate(0 2) translate(806) rotate(90 .743 163.243) scale(-1 1) rotate(45 0 -68.425)"/>
                <path d="M4 33.09L22.537 33.209 22.656 51.746" transform="translate(0 2) translate(806) rotate(90 .743 163.243) scale(-1 1) rotate(45 0 10.242)"/>
            </g>
        </g>
        <g fill-rule="nonzero">
            <path fill="#CCF3FB" d="M114.783 125.217H31.304C14.044 125.217 0 111.174 0 93.913c0-13.495 8.796-25.455 21.362-29.672-.333-1.778-.492-3.45-.492-5.11 0-10.673 5.473-20.495 14.453-26.239-.365-1.77-.54-3.42-.54-5.066C34.783 12.483 47.266 0 62.609 0c12.702 0 23.77 8.828 26.864 20.97 16.09 1.285 28.788 14.79 28.788 31.204 0 3.585-.63 7.09-1.877 10.475 16.519.838 29.703 14.54 29.703 31.264 0 17.26-14.044 31.304-31.304 31.304z" transform="translate(0 2) translate(609 55)"/>
            <path fill="#03C2EA" d="M87.976 84.497L76.522 95.951V55.652c0-1.92-1.558-3.478-3.479-3.478-1.92 0-3.478 1.557-3.478 3.478V78.56L58.111 67.106c-1.358-1.359-3.56-1.359-4.918 0-1.359 1.359-1.359 3.56 0 4.918l16.372 16.373v68.125c0 1.92 1.558 3.478 3.478 3.478 1.921 0 3.479-1.557 3.479-3.478v-50.734l16.372-16.372c1.359-1.359 1.359-3.56 0-4.919-1.359-1.358-3.56-1.358-4.918 0z" transform="translate(0 2) translate(609 55)"/>
            <path fill="#03C2EA" d="M107.826 160H38.261c-1.921 0-3.478-1.557-3.478-3.478 0-1.921 1.557-3.479 3.478-3.479h69.565c1.921 0 3.478 1.558 3.478 3.479 0 1.92-1.557 3.478-3.478 3.478z" transform="translate(0 2) translate(609 55)"/>
        </g>
        <g fill-rule="nonzero">
            <path fill="#CCF3FB" d="M114.783 125.217H31.304C14.044 125.217 0 111.174 0 93.913c0-13.495 8.796-25.455 21.362-29.672-.333-1.778-.492-3.45-.492-5.11 0-10.673 5.473-20.495 14.453-26.239-.365-1.77-.54-3.42-.54-5.066C34.783 12.483 47.266 0 62.609 0c12.702 0 23.77 8.828 26.864 20.97 16.09 1.285 28.788 14.79 28.788 31.204 0 3.585-.63 7.09-1.877 10.475 16.519.838 29.703 14.54 29.703 31.264 0 17.26-14.044 31.304-31.304 31.304z" transform="translate(0 2) translate(0 55)"/>
            <path fill="#03C2EA" d="M87.976 84.497L76.522 95.951V55.652c0-1.92-1.558-3.478-3.479-3.478-1.92 0-3.478 1.557-3.478 3.478V78.56L58.111 67.106c-1.358-1.359-3.56-1.359-4.918 0-1.359 1.359-1.359 3.56 0 4.918l16.372 16.373v68.125c0 1.92 1.558 3.478 3.478 3.478 1.921 0 3.479-1.557 3.479-3.478v-50.734l16.372-16.372c1.359-1.359 1.359-3.56 0-4.919-1.359-1.358-3.56-1.358-4.918 0z" transform="translate(0 2) translate(0 55)"/>
            <path fill="#03C2EA" d="M107.826 160H38.261c-1.921 0-3.478-1.557-3.478-3.478 0-1.921 1.557-3.479 3.478-3.479h69.565c1.921 0 3.478 1.558 3.478 3.479 0 1.92-1.557 3.478-3.478 3.478z" transform="translate(0 2) translate(0 55)"/>
        </g>
        <g fill-rule="nonzero">
            <path fill="#CCF3FB" d="M114.783 125.217H31.304C14.044 125.217 0 111.174 0 93.913c0-13.495 8.796-25.455 21.362-29.672-.333-1.778-.492-3.45-.492-5.11 0-10.673 5.473-20.495 14.453-26.239-.365-1.77-.54-3.42-.54-5.066C34.783 12.483 47.266 0 62.609 0c12.702 0 23.77 8.828 26.864 20.97 16.09 1.285 28.788 14.79 28.788 31.204 0 3.585-.63 7.09-1.877 10.475 16.519.838 29.703 14.54 29.703 31.264 0 17.26-14.044 31.304-31.304 31.304z" transform="translate(0 2) translate(1100 55)"/>
            <path fill="#03C2EA" d="M87.976 84.497L76.522 95.951V55.652c0-1.92-1.558-3.478-3.479-3.478-1.92 0-3.478 1.557-3.478 3.478V78.56L58.111 67.106c-1.358-1.359-3.56-1.359-4.918 0-1.359 1.359-1.359 3.56 0 4.918l16.372 16.373v68.125c0 1.92 1.558 3.478 3.478 3.478 1.921 0 3.479-1.557 3.479-3.478v-50.734l16.372-16.372c1.359-1.359 1.359-3.56 0-4.919-1.359-1.358-3.56-1.358-4.918 0z" transform="translate(0 2) translate(1100 55)"/>
            <path fill="#03C2EA" d="M107.826 160H38.261c-1.921 0-3.478-1.557-3.478-3.478 0-1.921 1.557-3.479 3.478-3.479h69.565c1.921 0 3.478 1.558 3.478 3.479 0 1.92-1.557 3.478-3.478 3.478z" transform="translate(0 2) translate(1100 55)"/>
        </g>
    </g>
</svg>
