<svg xmlns="http://www.w3.org/2000/svg" width="110" height="96" viewBox="0 0 110 96">
    <g fill="none" fill-rule="evenodd" stroke="#03C2EA" stroke-width="2.5" transform="translate(2 1)">
        <path d="M10.5 39L10.5 85M95.5 39L95.5 85.5"/>
        <rect width="18" height="16" x="19" y="57" rx="1"/>
        <rect width="18" height="16" x="70" y="57" rx="1"/>
        <path fill="#CCF3FB" d="M44.958 57h16.084c.53 0 .958.429.958.958V85H44V57.958c0-.53.429-.958.958-.958z"/>
        <rect width="33" height="8" x="37" y="85" rx="1"/>
        <path fill="#CCF3FB" d="M31.894 94c.074-.362.11-.73.106-1.1.021-2.972-2.282-5.401-5.151-5.434h-.173c-.626-3.447-3.364-6.06-6.733-6.423-3.368-.364-6.568 1.607-7.867 4.846-.609-.254-1.259-.385-1.915-.386-1.382.013-2.701.594-3.67 1.615-.967 1.02-1.503 2.398-1.49 3.828-.012 1.052.27 2.085.813 2.975M101.904 94c.066-.363.098-.732.096-1.1.021-2.973-2.283-5.403-5.153-5.435h-.172c-.627-3.443-3.36-6.053-6.725-6.42-3.365-.369-6.564 1.592-7.872 4.823-.609-.255-1.259-.386-1.915-.387-1.382.013-2.702.594-3.67 1.615-.969 1.021-1.505 2.399-1.493 3.83-.011 1.052.272 2.085.814 2.975M89.582 6.95h10.026c.777.016 1.397.654 1.392 1.432v29.644c0 .538-.436.974-.973.974h-9.968c-.263.002-.516-.104-.7-.292L55.262 3.405c-.541-.53-1.406-.53-1.947 0l-34.69 35.303c-.183.186-.431.29-.692.292H6.973C6.436 39 6 38.564 6 38.026V8.382c-.003-.38.146-.743.413-1.012s.63-.42 1.008-.42h42.38l3.475-3.545c.258-.26.608-.405.973-.405.366 0 .716.146.974.405l3.533 3.545 30.788.234"/>
        <path fill="#FFF" fill-rule="nonzero" d="M79 1h9v13.024c0 .54-.429.976-.957.976h-7.086c-.528 0-.957-.437-.957-.976V1z"/>
        <circle cx="53.5" cy="34.5" r="7.5"/>
        <path stroke-linecap="round" d="M0 93.5L106 93.5M74 .5L92 .5"/>
    </g>
</svg>
