<svg xmlns="http://www.w3.org/2000/svg" width="299" height="95" viewBox="0 0 299 95">
    <g fill="none" fill-rule="evenodd" stroke-width="2.5" transform="translate(2 1)">
        <path stroke="#C0D4E5" d="M10.743 38.362L10.743 84.649"/>
        <path stroke="#C0D4E5" stroke-linecap="round" d="M0 92.438L200.124 92.438"/>
        <rect width="18.203" height="15.626" x="18.629" y="55.945" stroke="#C0D4E5" rx="1"/>
        <rect width="18.203" height="15.626" x="70.089" y="55.945" stroke="#C0D4E5" rx="1"/>
        <path stroke="#C0D4E5" d="M45.202 55.945h16.265c.535 0 .969.434.969.97v27.357H44.233V56.914c0-.535.434-.969.969-.969z"/>
        <rect width="33.257" height="8.167" x="36.706" y="84.272" stroke="#C0D4E5" rx="1"/>
        <path stroke="#C0D4E5" d="M32.163 92.564c.074-.353.11-.714.106-1.075.022-2.903-2.309-5.277-5.212-5.309h-.174c-.634-3.363-3.399-5.912-6.802-6.272-3.403-.36-6.64 1.556-7.962 4.712-.616-.248-1.273-.377-1.937-.377-1.398.012-2.734.58-3.713 1.577-.979.998-1.522 2.343-1.509 3.74-.012 1.029.274 2.038.823 2.907M88.708 6.48h9.979c.773.017 1.39.651 1.385 1.425v29.489c0 .535-.434.969-.969.969h-9.92c-.262.001-.514-.104-.697-.291L54.55 2.955c-.536-.532-1.4-.532-1.937 0L18.087 38.072c-.182.185-.43.29-.688.29H6.462c-.535 0-.97-.433-.97-.968V7.905c-.005-.777.618-1.413 1.396-1.424h42.199l3.497-3.526c.255-.26.604-.407.968-.407.365 0 .714.146.97.407l3.516 3.526 30.641.232"/>
        <path fill="#FFF" fill-rule="nonzero" stroke="#C0D4E5" d="M78.914.533h9.107v12.933c0 .535-.434.968-.97.968h-7.168c-.535 0-.969-.433-.969-.968V.533z"/>
        <path stroke="#C0D4E5" stroke-linecap="round" d="M74.555.533L92.361.533M100.062 34.497L100.062 92.516"/>
        <rect width="18.203" height="15.626" x="113.169" y="55.897" stroke="#C0D4E5" stroke-linecap="round" rx="1"/>
        <rect width="18.203" height="15.626" x="164.629" y="55.897" stroke="#C0D4E5" stroke-linecap="round" rx="1"/>
        <path stroke="#C0D4E5" stroke-linecap="round" d="M139.713 55.877h16.265c.535 0 .97.434.97.97v27.357h-18.204V56.846c0-.535.434-.968.97-.968z"/>
        <rect width="33.257" height="8.167" x="131.217" y="84.213" stroke="#C0D4E5" stroke-linecap="round" rx="1"/>
        <path stroke="#C0D4E5" stroke-linecap="round" d="M183.249 6.433h9.978c.772.015 1.386.651 1.376 1.424v29.488c0 .535-.434.97-.97.97h-9.89c-.264-.002-.516-.11-.698-.301l-33.954-35.06c-.539-.526-1.4-.526-1.938 0l-34.526 35.07c-.181.184-.429.289-.688.29h-10.908c-.535 0-.969-.434-.969-.969V7.857c-.005-.375.14-.735.401-1.003.262-.267.62-.419.994-.421h42.19l3.467-3.478c.257-.258.605-.403.97-.403.363 0 .711.145.968.403l3.516 3.526 30.642.232"/>
        <path fill="#FFF" fill-rule="nonzero" stroke="#C0D4E5" stroke-linecap="round" d="M173.445.484h9.106v12.933c0 .535-.433.969-.968.969h-7.17c-.534 0-.968-.434-.968-.969V.484z"/>
        <path stroke="#C0D4E5" stroke-linecap="round" d="M169.095.484L186.901.484M100.062 92.39L200.706 92.39"/>
        <path stroke="#03C2EA" d="M284.231 38.314L284.231 82.654M194.602 34.497L194.602 92.516"/>
        <rect width="18.203" height="15.626" x="207.71" y="55.897" stroke="#03C2EA" rx="1"/>
        <rect width="18.203" height="15.626" x="259.17" y="55.897" stroke="#03C2EA" rx="1"/>
        <path fill="#CBF2FB" stroke="#03C2EA" d="M234.244 55.877h16.265c.535 0 .969.434.969.97v27.357h-18.203V56.846c0-.535.434-.968.969-.968z"/>
        <rect width="33.257" height="8.167" x="225.757" y="84.213" stroke="#03C2EA" rx="1"/>
        <path fill="#CBF2FB" stroke="#03C2EA" d="M290.916 92.516c.066-.355.099-.715.097-1.076.012-1.395-.53-2.738-1.507-3.734-.977-.995-2.31-1.562-3.705-1.574h-.175c-.634-3.363-3.398-5.913-6.801-6.272-3.404-.36-6.64 1.556-7.962 4.712-.616-.249-1.274-.377-1.938-.378-1.398.013-2.733.58-3.712 1.578-.98.997-1.522 2.343-1.51 3.74 0 1.012.285 2.003.824 2.858M277.79 6.433h9.977c.774.015 1.391.65 1.386 1.424v29.488c0 .535-.434.97-.97.97h-9.92c-.263-.002-.515-.11-.697-.301l-33.935-35.06c-.536-.531-1.401-.531-1.938 0l-34.526 35.07c-.181.184-.429.289-.688.29h-10.908c-.535 0-.969-.434-.969-.969V7.857c-.005-.778.618-1.414 1.395-1.425h42.2l3.467-3.477c.255-.26.605-.407.97-.407.364 0 .713.146.968.407l3.516 3.526 30.642.232"/>
        <path fill="#FFF" fill-rule="nonzero" stroke="#03C2EA" d="M267.995.484h9.106v12.933c0 .535-.433.969-.969.969h-7.168c-.535 0-.969-.434-.969-.969V.484z"/>
        <path stroke="#03C2EA" stroke-linecap="round" d="M263.636.484L281.441.484M194.602 92.39L295.246 92.39"/>
        <circle cx="53.339" cy="33.209" r="7.508" stroke="#C0D4E5"/>
        <circle cx="147.851" cy="33.209" r="7.508" stroke="#C0D4E5"/>
        <circle cx="242.391" cy="33.209" r="7.508" stroke="#03C2EA"/>
    </g>
</svg>
