<svg xmlns="http://www.w3.org/2000/svg" width="204" height="95" viewBox="0 0 204 95">
    <g fill="none" fill-rule="evenodd" stroke-width="2.5" transform="translate(2 1)">
        <path stroke="#C0D4E5" d="M10.743 38.362L10.743 84.649"/>
        <path stroke="#C0D4E5" stroke-linecap="round" d="M0 92.438L200.134 92.438"/>
        <rect width="18.203" height="15.626" x="18.629" y="55.945" stroke="#C0D4E5" rx="1"/>
        <rect width="18.203" height="15.626" x="70.089" y="55.945" stroke="#C0D4E5" rx="1"/>
        <path stroke="#C0D4E5" d="M44.93 55.945h16.266c.535 0 .969.434.969.97v27.357H43.962V56.914c0-.535.434-.969.969-.969z"/>
        <rect width="33.257" height="8.167" x="36.435" y="84.272" stroke="#C0D4E5" rx="1"/>
        <path stroke="#C0D4E5" d="M32.172 92.564c.07-.354.106-.714.107-1.075.021-2.907-2.315-5.282-5.222-5.309h-.165c-.627-3.37-3.395-5.928-6.805-6.288-3.41-.36-6.65 1.563-7.968 4.728-.616-.248-1.273-.377-1.937-.377-2.907.031-5.24 2.411-5.213 5.318-.01 1.026.273 2.034.814 2.906M88.96 6.48h9.978c.774.017 1.391.651 1.386 1.425v29.489c0 .535-.434.969-.969.969h-9.9c-.263.001-.515-.104-.698-.291L54.822 2.955c-.539-.527-1.4-.527-1.938 0L18.397 38.072c-.182.185-.43.29-.688.29H6.762c-.535 0-.969-.433-.969-.968V7.905c-.005-.777.618-1.413 1.395-1.424h42.199l3.458-3.526c.257-.258.605-.403.97-.403.363 0 .711.145.968.403l3.516 3.526 30.642.232"/>
        <path fill="#FFF" fill-rule="nonzero" stroke="#C0D4E5" d="M78.914.533h9.107v12.933c0 .535-.434.968-.97.968h-7.168c-.535 0-.969-.433-.969-.968V.533z"/>
        <path stroke="#C0D4E5" stroke-linecap="round" d="M74.565 0.533L92.37 0.533"/>
        <path stroke="#03C2EA" d="M100.072 34.497L100.072 92.516M189.691 38.314L189.691 82.654"/>
        <rect width="18.203" height="15.626" x="113.169" y="55.897" stroke="#03C2EA" rx="1"/>
        <rect width="18.203" height="15.626" x="164.629" y="55.897" stroke="#03C2EA" rx="1"/>
        <path fill="#CCF3FB" stroke="#03C2EA" d="M139.732 55.877h16.266c.535 0 .969.434.969.97v27.357h-18.203V56.846c0-.535.433-.968.968-.968z"/>
        <rect width="33.257" height="8.167" x="131.188" y="84.213" stroke="#03C2EA" rx="1"/>
        <path fill="#CCF3FB" stroke="#03C2EA" d="M196.375 92.516c.07-.355.106-.715.107-1.076.021-2.907-2.315-5.282-5.222-5.308h-.174c-.634-3.363-3.398-5.913-6.802-6.272-3.403-.36-6.64 1.556-7.962 4.712-.616-.249-1.273-.377-1.937-.378-2.909.032-5.243 2.41-5.222 5.319 0 1.01.285 2.002.824 2.857M183.249 6.433h9.978c.773.015 1.39.65 1.385 1.424v29.488c0 .535-.434.97-.969.97h-9.92c-.263-.002-.515-.11-.697-.301L149.09 2.954c-.537-.531-1.402-.531-1.938 0l-34.526 35.07c-.181.184-.429.289-.688.29h-10.908c-.535 0-.969-.434-.969-.969V7.857c-.005-.778.618-1.414 1.395-1.425h42.199l3.43-3.477c.254-.26.604-.407.968-.407.365 0 .714.146.969.407l3.516 3.526 30.642.232"/>
        <path fill="#FFF" fill-rule="nonzero" stroke="#03C2EA" d="M173.455.484h9.106v12.933c0 .535-.434.969-.969.969h-7.169c-.535 0-.968-.434-.968-.969V.484z"/>
        <path stroke="#03C2EA" stroke-linecap="round" d="M169.105.484L186.901.484M100.072 92.39L200.706 92.39"/>
        <circle cx="53.058" cy="33.209" r="7.508" stroke="#C0D4E5"/>
        <circle cx="147.87" cy="33.209" r="7.508" stroke="#03C2EA"/>
    </g>
</svg>
