<svg xmlns="http://www.w3.org/2000/svg" width="296" height="94" viewBox="0 0 296 94">
    <g fill="none" fill-rule="evenodd" stroke-width="2.5" transform="translate(2 1)">
        <path stroke="#C0D4E5" d="M10.629 37.954L10.629 83.749"/>
        <path stroke="#C0D4E5" stroke-linecap="round" d="M0 91.455L197.995 91.455"/>
        <rect width="18.009" height="15.46" x="18.431" y="55.35" stroke="#C0D4E5" rx="1"/>
        <rect width="18.009" height="15.46" x="69.343" y="55.35" stroke="#C0D4E5" rx="1"/>
        <path stroke="#C0D4E5" d="M44.721 55.35h16.092c.53 0 .959.43.959.959v27.066h-18.01V56.31c0-.53.43-.959.959-.959z"/>
        <rect width="32.903" height="8.08" x="36.315" y="83.375" stroke="#C0D4E5" rx="1"/>
        <path stroke="#C0D4E5" d="M31.82 91.58c.074-.35.11-.707.106-1.065.021-2.872-2.285-5.22-5.157-5.252h-.172c-.627-3.327-3.362-5.85-6.73-6.205-3.367-.355-6.568 1.54-7.877 4.662-.609-.246-1.26-.373-1.917-.374-1.383.013-2.704.574-3.673 1.561-.968.987-1.506 2.318-1.493 3.701-.011 1.017.272 2.016.815 2.875M87.765 6.412h9.872c.765.016 1.376.643 1.37 1.409v29.175c0 .53-.429.958-.958.958h-9.815c-.26.002-.508-.102-.69-.287L53.97 2.923c-.53-.526-1.386-.526-1.917 0L17.894 37.667c-.18.183-.424.286-.68.287H6.393c-.53 0-.959-.429-.959-.958V7.82c-.005-.77.611-1.398 1.38-1.409h41.75l3.46-3.489c.253-.257.598-.402.959-.402.36 0 .706.145.958.402l3.48 3.489 30.315.23"/>
        <path fill="#FFF" fill-rule="nonzero" stroke="#C0D4E5" d="M78.075.527h9.01v12.795c0 .53-.43.959-.96.959h-7.092c-.529 0-.958-.43-.958-.959V.527z"/>
        <path stroke="#C0D4E5" stroke-linecap="round" d="M73.762 0.527L91.378 0.527"/>
        <path stroke="#03C2EA" stroke-linecap="round" d="M98.998 34.13L98.998 91.531"/>
        <rect width="18.009" height="15.46" x="111.965" y="55.302" stroke="#03C2EA" stroke-linecap="round" rx="1"/>
        <rect width="18.009" height="15.46" x="162.878" y="55.302" stroke="#03C2EA" stroke-linecap="round" rx="1"/>
        <path fill="#CCF3FB" stroke="#03C2EA" stroke-linecap="round" d="M138.227 55.283h16.092c.53 0 .959.43.959.959v27.066h-18.01V56.242c0-.53.43-.959.959-.959z"/>
        <rect width="32.903" height="8.08" x="129.821" y="83.318" stroke="#03C2EA" stroke-linecap="round" rx="1"/>
        <path stroke="#03C2EA" stroke-linecap="round" d="M167.296 0.479L184.913 0.479"/>
        <path stroke="#C0D4E5" d="M281.208 37.906L281.208 81.774"/>
        <rect width="18.009" height="15.46" x="205.5" y="55.302" stroke="#C0D4E5" rx="1"/>
        <rect width="18.009" height="15.46" x="256.413" y="55.302" stroke="#C0D4E5" rx="1"/>
        <path stroke="#C0D4E5" d="M231.752 55.283h16.092c.53 0 .959.43.959.959v27.066h-18.01V56.242c0-.53.43-.959.959-.959z"/>
        <rect width="32.903" height="8.08" x="223.356" y="83.318" stroke="#C0D4E5" rx="1"/>
        <path stroke="#C0D4E5" d="M287.82 91.531c.067-.35.099-.707.097-1.063.012-1.38-.524-2.71-1.49-3.695-.968-.985-2.287-1.545-3.667-1.558h-.172c-.627-3.327-3.363-5.849-6.73-6.205-3.367-.355-6.569 1.54-7.877 4.662-.61-.246-1.26-.373-1.917-.374-1.383.013-2.704.575-3.673 1.561-.969.987-1.506 2.318-1.493 3.701 0 1 .282 1.981.815 2.828M274.834 6.364h9.872c.765.016 1.376.644 1.37 1.409v29.175c0 .53-.429.958-.958.958h-9.815c-.26 0-.51-.108-.69-.297L241.04 2.923c-.53-.526-1.386-.526-1.917 0L204.963 37.62c-.179.183-.424.286-.68.287H193.49c-.53 0-.959-.429-.959-.958V7.773c-.005-.77.611-1.398 1.38-1.409h41.75l3.431-3.44c.253-.258.598-.403.959-.403.36 0 .706.145.958.402l3.48 3.489 30.315.23"/>
        <path fill="#FFF" fill-rule="nonzero" stroke="#C0D4E5" d="M265.144.48h9.01v12.794c0 .53-.43.959-.96.959h-7.092c-.529 0-.958-.43-.958-.959V.48z"/>
        <path stroke="#C0D4E5" stroke-linecap="round" d="M260.831.479L278.447.479M192.532 91.407L292.105 91.407"/>
        <circle cx="52.772" cy="32.855" r="7.428" stroke="#C0D4E5"/>
        <circle cx="146.278" cy="32.855" r="7.428" stroke="#03C2EA"/>
        <circle cx="239.812" cy="32.855" r="7.428" stroke="#C0D4E5"/>
        <path stroke="#03C2EA" d="M192.532 34.13L192.532 91.531"/>
        <path fill="#CCF3FB" stroke="#03C2EA" stroke-linecap="round" d="M181.3 6.364h9.871c.764.016 1.372.645 1.361 1.409v29.175c0 .53-.429.958-.958.958h-9.786c-.26 0-.51-.108-.69-.297L147.505 2.923c-.533-.52-1.385-.52-1.917 0l-34.16 34.696c-.179.183-.424.286-.68.287H99.956c-.53 0-.958-.429-.958-.958V7.773c-.005-.37.137-.727.397-.992.259-.264.613-.414.983-.417h41.74l3.431-3.44c.254-.256.599-.4.959-.4s.705.144.958.4l3.48 3.488 30.315.23"/>
        <path fill="#FFF" fill-rule="nonzero" stroke="#03C2EA" stroke-linecap="round" d="M171.6.48h9.01v12.794c0 .53-.43.959-.96.959h-7.092c-.529 0-.958-.43-.958-.959V.48z"/>
        <path stroke="#03C2EA" stroke-linecap="round" d="M98.998 91.407L192.431 91.516"/>
    </g>
</svg>
