<svg xmlns="http://www.w3.org/2000/svg" width="252" height="160" viewBox="0 0 252 160">
    <g fill="none" fill-rule="evenodd">
        <path fill="#CBF2FB" d="M200.446 93.985L159.026 143.848 141.012 143.848 123.64 143.848 118.276 141.769 125.857 118.917 121.308 99.085 107.31 84.908 87.735 80.059 66.66 86.386 56.186 101.073 53.371 115.777 56.186 130.74 64.162 143.848 76.104 151.787 91.749 157.057 114.585 157.057 136.218 157.057 153.834 157.057 163.145 153.207 171.462 141.769 179.737 133.193 188.246 121.376 196.056 113.678 200.447 107.458z" transform="translate(2 1)"/>
        <path stroke="#03C2EA" stroke-linecap="round" stroke-width="3.5" d="M13.21 87.706L13.426 118.5M233.514 87.706L233.514 117.459" transform="translate(2 1)"/>
        <path fill="#CBF2FB" stroke="#03C2EA" stroke-width="3.5" d="M217.565 14.49h26.099c2.001.013 3.616 1.466 3.616 3.258v67.756c0 1.23-1.134 2.224-2.533 2.224h-25.942c-.688 0-1.344-.243-1.822-.677l-88.76-80.668c-1.416-1.27-3.736-1.27-5.153 0l-90.212 80.68c-.475.426-1.127.665-1.807.665H2.534c-1.4 0-2.534-.995-2.534-2.224V17.748c0-1.798 1.63-3.258 3.643-3.258h110.363l9.064-8.107c1.656-1.286 3.505-1.29 5.154 0l9.196 8.107 80.145.524" transform="translate(2 1)"/>
        <path fill="#FFF" d="M213.265 32.763h-20.537c-.902 0-1.634-.733-1.634-1.637V.818h23.805v30.308c0 .904-.73 1.637-1.634 1.637" transform="translate(2 1)"/>
        <path stroke="#03C2EA" stroke-width="3.5" d="M213.265 32.763h-20.537c-.902 0-1.634-.733-1.634-1.637V.818h23.805v30.308c0 .904-.73 1.637-1.634 1.637z" transform="translate(2 1)"/>
        <path stroke="#03C2EA" stroke-linecap="round" stroke-width="3.5" d="M179.714.819L226.28.819M97.79 119.79c2.394-3.218 1.731-7.77-1.481-10.17-4.014-2.997-10.177-3.17-12.689 1.856-2.195 4.399.566 15.418 5.583 19.166 6.274 4.684 15.15 3.385 19.824-2.9 5.844-7.856 2.59-23.884-5.25-29.742-9.801-7.317-23.798-5.387-30.974 4.53-7.008 9.686-6.603 28.01 5.65 37.16 15.315 11.439 33.717 9.906 45.13-5.44l33.794-38.317s10.412-17.549-1.894-36.518c0 0-4.109-8.806-16.843-12.757-11.465-3.557-23.934-.913-33.455 6.406-3.473 2.67-7.708 6.153-12.65 10.619 0 0-23.016 18.195-31.475 28.66 0 0-13.96 15.682-4.259 40.817 0 0 .309.658.923 1.753 7.168 12.786 20.676 20.695 35.309 20.959l60.772 1.099c3.007.054 5.88-1.248 7.82-3.546l36.933-43.732c1.22-1.443 1.888-3.272 1.888-5.161V94.17h0c0-.064-.078-.094-.119-.046l-43.56 50.453c-.289.334-.787.383-1.127.103-1.65-1.359-6.607-4.56-12.45.043-.323.255-.778.25-1.077-.033-1.689-1.595-7.492-6.036-14.743-.128-.268.22-.64.264-.935.082-1.15-.714-4.287-2.447-8.16-2.875" transform="translate(2 1)"/>
        <path stroke="#03C2EA" stroke-linecap="round" stroke-width="3.5" d="M159.026 92.343s4.415-4.445 12.086-.239c.251.138.557.146.804 0 1.581-.946 7.839-4.19 13.26-.088.245.185.57.235.844.098 1.907-.95 9.66-4.267 14.427 1.871M57.64 97.646c13.033-19.151 36.504-23.334 54.185-9.218 14.146 11.292 18.794 32.863 8.368 48.185 0 0-7.184 12.87-24.378 10.358" transform="translate(2 1)"/>
    </g>
</svg>
