<svg xmlns="http://www.w3.org/2000/svg" width="113" height="136" viewBox="0 0 113 136">
    <g fill="none" fill-rule="evenodd">
        <path stroke="#03C2EA" stroke-width="2.5" d="M10.752 39.55L10.752 124.866M97.888 39.55L97.888 122.724M36.685 111.372h-16.79c-.552 0-1-.448-1-1V96.24c0-.552.448-1 1-1h16.79c.552 0 1 .448 1 1v14.132c0 .552-.448 1-1 1zM89.805 111.372h-16.79c-.552 0-1-.448-1-1V96.24c0-.552.448-1 1-1h16.79c.552 0 1 .448 1 1v14.132c0 .552-.448 1-1 1zM36.685 86.809h-16.79c-.552 0-1-.447-1-1V71.678c0-.553.448-1 1-1h16.79c.552 0 1 .447 1 1v14.13c0 .554-.448 1-1 1zM63.245 86.809h-16.79c-.552 0-1-.447-1-1V71.678c0-.553.448-1 1-1h16.79c.552 0 1 .447 1 1v14.13c0 .554-.448 1-1 1zM89.805 86.809h-16.79c-.552 0-1-.447-1-1V71.678c0-.553.448-1 1-1h16.79c.552 0 1 .447 1 1v14.13c0 .554-.448 1-1 1zM36.685 63.18h-16.79c-.552 0-1-.447-1-1V48.048c0-.552.448-1 1-1h16.79c.552 0 1 .448 1 1V62.18c0 .553-.448 1-1 1zM63.245 63.18h-16.79c-.552 0-1-.447-1-1V48.048c0-.552.448-1 1-1h16.79c.552 0 1 .448 1 1V62.18c0 .553-.448 1-1 1zM89.805 63.18h-16.79c-.552 0-1-.447-1-1V48.048c0-.552.448-1 1-1h16.79c.552 0 1 .448 1 1V62.18c0 .553-.448 1-1 1z" transform="translate(2 1)"/>
        <path fill="#CDF3FB" stroke="#03C2EA" stroke-width="2.5" d="M63.895 124.476h-18.79V96.24c0-.552.448-1 1-1h16.79c.552 0 1 .448 1 1v28.235z" transform="translate(2 1)"/>
        <path stroke="#03C2EA" stroke-width="2.5" d="M70.665 132.907h-32.33c-.553 0-1-.447-1-1v-6.432c0-.55.447-1 1-1h32.33c.553 0 1 .45 1 1v6.432c0 .553-.447 1-1 1z" transform="translate(2 1)"/>
        <path fill="#CDF3FB" stroke="#03C2EA" stroke-width="2.5" d="M32.866 133.042c.072-.357.109-.727.109-1.105 0-3.03-2.411-5.485-5.386-5.485-.06 0-.117.016-.177.018-.77-3.711-4.003-6.498-7.877-6.498-3.292 0-6.118 2.013-7.367 4.894-.611-.245-1.271-.39-1.968-.39-2.975 0-5.386 2.456-5.386 5.485 0 1.085.309 2.097.843 2.947M104.776 133.042c.072-.357.11-.727.11-1.105 0-3.03-2.412-5.485-5.387-5.485-.06 0-.117.016-.177.018-.77-3.711-4.003-6.498-7.877-6.498-3.292 0-6.118 2.013-7.367 4.894-.61-.245-1.27-.39-1.968-.39-2.974 0-5.386 2.456-5.386 5.485 0 1.085.31 2.097.843 2.947M92.058 39.55h10.238c.553 0 1-.447 1-1l-4-30.443c0-.805-.637-1.458-1.427-1.464H11.141c-.794 0-1.437.655-1.437 1.464l-4 30.443c0 .553.447 1 1 1h85.354z" transform="translate(2 1)"/>
        <path fill="#FFF" d="M89.517 14.853h-7.395c-.552 0-1-.447-1-1V.5h9.395v13.353c0 .553-.448 1-1 1" transform="translate(2 1)"/>
        <path stroke="#03C2EA" stroke-width="2.5" d="M89.517 14.853h-7.395c-.552 0-1-.447-1-1V.5h9.395v13.353c0 .553-.448 1-1 1z" transform="translate(2 1)"/>
        <path stroke="#03C2EA" stroke-linecap="round" stroke-width="2.5" d="M76.63.5L95.008.5M0 132.907L109 132.907" transform="translate(2 1)"/>
    </g>
</svg>
