<svg xmlns="http://www.w3.org/2000/svg" width="121" height="95" viewBox="0 0 121 95">
    <g fill="none" fill-rule="evenodd">
        <path stroke="#03C2EA" stroke-width="2.5" d="M11.608 42.702L11.608 83.791M105.687 42.702L105.687 81.627M39.607 69.221H21.48c-.596 0-1.08-.484-1.08-1.08V52.884c0-.596.484-1.08 1.08-1.08h18.127c.596 0 1.08.484 1.08 1.08V68.14c0 .596-.484 1.08-1.08 1.08zM96.96 69.221H78.832c-.596 0-1.08-.484-1.08-1.08V52.884c0-.596.484-1.08 1.08-1.08H96.96c.596 0 1.08.484 1.08 1.08V68.14c0 .596-.484 1.08-1.08 1.08z" transform="translate(2 1)"/>
        <path fill="#CDF3FB" stroke="#03C2EA" stroke-width="2.5" d="M68.985 83.37H48.698V52.884c0-.596.484-1.08 1.08-1.08h18.128c.596 0 1.08.484 1.08 1.08V83.37z" transform="translate(2 1)"/>
        <path stroke="#03C2EA" stroke-width="2.5" d="M76.295 92.472H41.389c-.597 0-1.08-.483-1.08-1.08V84.45c0-.596.483-1.08 1.08-1.08h34.906c.597 0 1.08.484 1.08 1.08v6.943c0 .597-.483 1.08-1.08 1.08z" transform="translate(2 1)"/>
        <path fill="#CDF3FB" stroke="#03C2EA" stroke-width="2.5" d="M35.484 92.617c.078-.385.118-.785.118-1.193 0-3.271-2.603-5.922-5.815-5.922-.065 0-.127.018-.191.02-.832-4.007-4.322-7.015-8.505-7.015-3.554 0-6.605 2.172-7.954 5.283-.66-.265-1.372-.42-2.125-.42-3.212 0-5.815 2.65-5.815 5.92 0 1.172.334 2.265.91 3.183M113.124 92.617c.077-.385.117-.785.117-1.193 0-3.271-2.603-5.922-5.815-5.922-.064 0-.126.018-.19.02-.832-4.007-4.323-7.015-8.505-7.015-3.555 0-6.606 2.172-7.954 5.283-.66-.265-1.373-.42-2.125-.42-3.211 0-5.815 2.65-5.815 5.92 0 1.172.333 2.265.91 3.183M99.392 42.702h11.054c.597 0 1.08-.484 1.08-1.08l-4.32-32.87c0-.868-.687-1.574-1.54-1.58H12.03c-.858 0-1.552.707-1.552 1.58L6.16 41.623c0 .596.482 1.08 1.08 1.08h92.153z" transform="translate(2 1)"/>
        <path fill="#FFF" d="M96.648 16.036h-7.984c-.596 0-1.08-.483-1.08-1.08V.54h10.144v14.417c0 .597-.484 1.08-1.08 1.08" transform="translate(2 1)"/>
        <path stroke="#03C2EA" stroke-width="2.5" d="M96.648 16.036h-7.984c-.596 0-1.08-.483-1.08-1.08V.54h10.144v14.417c0 .597-.484 1.08-1.08 1.08z" transform="translate(2 1)"/>
        <path stroke="#03C2EA" stroke-linecap="round" stroke-width="2.5" d="M82.735.54L102.577.54M0 92.472L117.684 92.472" transform="translate(2 1)"/>
    </g>
</svg>
