<svg xmlns="http://www.w3.org/2000/svg" width="115" height="116" viewBox="0 0 115 116">
    <g fill="none" fill-rule="evenodd">
        <path stroke="#03C2EA" stroke-width="2.5" d="M10.942 40.978L10.942 104.707M99.621 40.978L99.621 102.978M37.334 90.974H20.247c-.562 0-1.018-.456-1.018-1.018V75.574c0-.562.456-1.018 1.018-1.018h17.087c.562 0 1.018.456 1.018 1.018v14.382c0 .562-.456 1.018-1.018 1.018zM91.395 90.974H74.308c-.562 0-1.018-.456-1.018-1.018V75.574c0-.562.456-1.018 1.018-1.018h17.087c.561 0 1.017.456 1.017 1.018v14.382c0 .562-.456 1.018-1.017 1.018zM37.334 65.976H20.247c-.562 0-1.018-.455-1.018-1.017V50.577c0-.563.456-1.018 1.018-1.018h17.087c.562 0 1.018.455 1.018 1.018v14.382c0 .562-.456 1.017-1.018 1.017zM64.364 65.976H47.277c-.562 0-1.018-.455-1.018-1.017V50.577c0-.563.456-1.018 1.018-1.018h17.087c.562 0 1.018.455 1.018 1.018v14.382c0 .562-.456 1.017-1.018 1.017zM91.395 65.976H74.308c-.562 0-1.018-.455-1.018-1.017V50.577c0-.563.456-1.018 1.018-1.018h17.087c.561 0 1.017.455 1.017 1.018v14.382c0 .562-.456 1.017-1.017 1.017z" transform="translate(2 1)"/>
        <path fill="#CDF3FB" stroke="#03C2EA" stroke-width="2.5" d="M65.026 104.31H45.903V75.574c0-.561.456-1.017 1.018-1.017h17.087c.562 0 1.018.456 1.018 1.017v28.736z" transform="translate(2 1)"/>
        <path stroke="#03C2EA" stroke-width="2.5" d="M71.916 112.89H39.013c-.562 0-1.017-.455-1.017-1.018v-6.544c0-.562.455-1.018 1.017-1.018h32.903c.562 0 1.017.456 1.017 1.017v6.545c0 .563-.455 1.018-1.017 1.018z" transform="translate(2 1)"/>
        <path fill="#CDF3FB" stroke="#03C2EA" stroke-width="2.5" d="M33.447 113.027c.074-.363.111-.74.111-1.124 0-3.084-2.453-5.582-5.481-5.582-.061 0-.12.016-.18.018-.784-3.777-4.074-6.612-8.017-6.612-3.35 0-6.226 2.048-7.497 4.98-.622-.25-1.293-.396-2.003-.396-3.027 0-5.481 2.498-5.481 5.58 0 1.105.314 2.135.858 3M106.63 113.027c.074-.363.112-.74.112-1.124 0-3.084-2.454-5.582-5.482-5.582-.06 0-.119.016-.18.018-.783-3.777-4.074-6.612-8.016-6.612-3.35 0-6.226 2.048-7.497 4.98-.622-.25-1.294-.396-2.003-.396-3.027 0-5.482 2.498-5.482 5.58 0 1.105.315 2.135.858 3M93.687 40.978h10.42c.562 0 1.017-.455 1.017-1.017l-4.07-30.982c0-.82-.649-1.485-1.453-1.491H11.338c-.808 0-1.462.667-1.462 1.49l-4.07 30.983c0 .562.454 1.017 1.017 1.017h86.864z" transform="translate(2 1)"/>
        <path fill="#FFF" d="M91.101 15.844h-7.526c-.562 0-1.018-.455-1.018-1.018V1.236h9.562v13.59c0 .563-.456 1.018-1.018 1.018" transform="translate(2 1)"/>
        <path stroke="#03C2EA" stroke-width="2.5" d="M91.101 15.844h-7.526c-.562 0-1.018-.455-1.018-1.018V1.236h9.562v13.59c0 .563-.456 1.018-1.018 1.018z" transform="translate(2 1)"/>
        <path stroke="#03C2EA" stroke-linecap="round" stroke-width="2.5" d="M0 112.89L110.929 112.89M78.241.509L96.944.509" transform="translate(2 1)"/>
    </g>
</svg>
