<svg xmlns="http://www.w3.org/2000/svg" width="111" height="134" viewBox="0 0 111 134">
    <g fill="none" fill-rule="evenodd" stroke="#03C2EA" stroke-width="2.5">
        <path fill="#FFF" d="M0.288 3.632L0.288 87.498 98.025 129.763 108.26 124.225 108.26 29.056 10.726 0z" transform="translate(1 2)"/>
        <path d="M98.025 129.763L98.025 33.084 0.288 3.631" transform="translate(1 2)"/>
        <path d="M.288 13.799L98.025 43.252 108.26 38.345M98.348 61.109L108.584 56.202M98.025 95.411L108.26 90.504M98.025 78.261L108.26 73.354M98.025 113.8L108.26 108.893M98.025 33.084L108.26 29.056" transform="translate(1 2)"/>
        <path d="M39.667 8.738L31.038 12.898 31.038 23.947" transform="translate(1 2)"/>
        <g>
            <path d="M.288 1.053L98.025 33.64M.288 15.779L98.025 50.691M.288 30.36L98.025 68.182M.288 45.882L98.025 86.328" transform="translate(1 2) translate(0 27.472)"/>
        </g>
        <path d="M13.14 17.671L13.14 32.81M46.424 27.443L46.424 43.908M80.71 38.345L80.71 54.81M26.991 37.429L26.991 52.791M62.514 49.271L62.514 65.153M13.14 47.842L13.14 62.516M42.864 58.46L42.864 73.797M79.208 71.442L79.208 88.034M26.991 68.165L26.991 84.139M59.689 80.818L59.689 97.935M13.14 78.671L13.14 92.746M42.864 90.973L42.864 105.909M79.208 105.91L79.208 121.626M67.705 34.017L67.705 23.947 76.707 19.655" transform="translate(1 2)"/>
    </g>
</svg>
