<svg xmlns="http://www.w3.org/2000/svg" width="129" height="134" viewBox="0 0 129 134">
    <g fill="none" fill-rule="evenodd" stroke="#03C2EA" stroke-width="2.5">
        <g>
            <path d="M0.784 3.378L0.784 81.393 91.701 120.71 101.223 115.559 101.223 27.028 10.494 0z" transform="translate(1 2) translate(24.698)"/>
            <path d="M91.702 120.709L91.702 30.776 0.784 3.378" transform="translate(1 2) translate(24.698)"/>
            <g>
                <path d="M.784.167L91.701 27.565 101.223 23.001M92.002 44.176L101.524 39.611M91.702 76.085L101.223 71.52M91.702 60.132L101.223 55.567M91.702 93.191L101.223 88.626M91.702 18.106L101.223 14.36" transform="translate(1 2) translate(24.698) translate(0 12.67)"/>
            </g>
            <path d="M37.415 8.129L29.388 11.998 29.388 22.277M.784 26.535L91.701 56.848M.784 40.234L91.701 72.71M.784 53.797L91.701 88.98M.784 68.236L91.701 105.86M12.739 16.438L12.739 30.521M43.701 25.528L43.701 40.844M75.595 35.67L75.595 50.986M25.624 34.817L25.624 49.108M58.668 45.834L58.668 60.607M12.739 44.504L12.739 58.154M40.39 54.381L40.39 68.648M74.198 66.458L74.198 81.892M25.624 63.409L25.624 78.269M56.041 75.179L56.041 91.102M12.739 73.183L12.739 86.275M40.39 84.626L40.39 98.52M74.198 98.521L74.198 113.141M63.498 32.066L63.498 22.276 71.871 18.284" transform="translate(1 2) translate(24.698)"/>
        </g>
        <g>
            <path fill="#FFF" d="M0.268 3.378L0.268 81.393 91.186 120.71 100.707 115.559 100.707 27.028 9.978 0z" transform="translate(1 2) translate(0 8.59)"/>
            <path d="M91.186 120.709L91.186 30.776 0.268 3.378" transform="translate(1 2) translate(0 8.59)"/>
            <path d="M.268 12.836L91.186 40.234 100.707 35.67M91.487 56.846L101.008 52.281M91.186 88.754L100.707 84.19M91.186 72.801L100.707 68.236M91.186 105.86L100.707 101.295M91.186 30.776L100.707 27.029" transform="translate(1 2) translate(0 8.59)"/>
            <path d="M36.899 8.129L28.872 11.998 28.872 22.277" transform="translate(1 2) translate(0 8.59)"/>
            <g>
                <path d="M.268.98L91.186 31.293M.268 14.678L91.186 47.154M.268 28.242L91.186 63.425M.268 42.681L91.186 80.305" transform="translate(1 2) translate(0 8.59) translate(0 25.555)"/>
            </g>
            <path d="M12.223 16.438L12.223 30.521M43.185 25.528L43.185 40.844M75.079 35.67L75.079 50.986M25.108 34.817L25.108 49.108M58.153 45.834L58.153 60.607M12.223 44.504L12.223 58.154M39.873 54.381L39.873 68.648M73.682 66.458L73.682 81.892M25.108 63.409L25.108 78.269M55.525 75.179L55.525 91.102M12.223 73.183L12.223 86.275M39.873 84.626L39.873 98.52M73.682 98.521L73.682 113.141M62.982 31.643L62.982 22.276 71.355 18.284" transform="translate(1 2) translate(0 8.59)"/>
        </g>
    </g>
</svg>
