<svg xmlns="http://www.w3.org/2000/svg" width="123" height="134" viewBox="0 0 123 134">
    <g fill="none" fill-rule="evenodd" stroke="#03C2EA" stroke-width="2.5">
        <path fill="#CBF2FB" fill-rule="nonzero" d="M9.942 5.653L26.746 0 118.939 28.374 118.939 115.552 102.86 123.998 0 82.647 0 9.106z" transform="translate(2 2)"/>
        <g>
            <path fill="#FFF" fill-rule="nonzero" d="M0 3.453L0 83.362 93.106 123.624 102.86 118.345 102.86 27.681 9.942 0z" transform="translate(2 2) translate(0 5.653)"/>
            <path d="M93.106 123.624L93.106 31.519 0 3.453" transform="translate(2 2) translate(0 5.653)"/>
            <path d="M0 13.142L93.106 41.208 102.86 36.534M93.425 58.221L103.168 53.547M93.106 90.895L102.86 86.221M93.106 74.553L102.86 69.879M93.106 108.414L102.86 103.74M93.106 31.519L102.86 27.681" transform="translate(2 2) translate(0 5.653)"/>
            <path d="M37.513 8.325L29.298 12.284 29.298 22.809M0 27.175L93.106 58.221M0 41.208L93.106 74.465M0 55.098L93.106 91.126M0 69.879L93.106 108.414M12.24 16.837L12.24 31.255M43.957 26.141L43.957 41.835M76.62 36.534L76.62 52.217M25.437 35.654L25.437 50.292M59.277 46.938L59.277 62.07M12.24 45.574L12.24 59.563M40.559 55.692L40.559 70.308M75.191 68.064L75.191 83.868M25.437 64.941L25.437 80.161M56.594 76.994L56.594 93.304M12.24 74.949L12.24 88.355M40.559 86.672L40.559 100.903M75.191 100.903L75.191 115.871M64.226 32.272L64.226 22.809 72.804 18.729" transform="translate(2 2) translate(0 5.653)"/>
        </g>
    </g>
</svg>
