<svg xmlns="http://www.w3.org/2000/svg" width="129" height="134" viewBox="0 0 129 134">
    <g fill="none" fill-rule="evenodd" stroke="#03C2EA" stroke-width="2.5">
        <path fill="#FFF" fill-rule="nonzero" d="M25.226 3.696L25.226 78.43 116.194 116.302 125.713 111.338 125.713 26.043 36.121 0z" transform="translate(2 2)"/>
        <path d="M116.194 116.302L116.194 31.974 25.226 3.255" transform="translate(2 2)"/>
        <path d="M25.226 12.366L116.194 38.774 125.713 34.369M116.495 54.772L126.014 50.378M116.194 85.521L125.713 81.116M116.194 70.146L125.713 65.752M116.194 102.002L125.713 97.597M115.474 30.888L125.713 26.043" transform="translate(2 2)"/>
        <path d="M61.874 7.832L53.848 11.56 53.848 21.466M25.226 25.57L116.194 54.772M25.226 38.764L116.194 70.06M25.226 51.839L116.194 85.736M25.226 65.752L116.194 102.002M37.184 15.847L37.184 29.406M68.169 24.603L68.169 39.355M100.079 34.369L100.079 49.131M50.077 33.553L50.077 47.316M83.136 44.168L83.136 58.393M37.184 42.879L37.184 56.029M64.85 52.398L64.85 66.15M98.682 64.033L98.682 78.902M50.077 61.1L50.077 75.411M80.514 72.435L80.514 87.777M37.184 70.512L37.184 83.125M64.85 81.535L64.85 94.921M98.682 94.921L98.682 109.007M86.735 22.036L96.35 17.62" transform="translate(2 2)"/>
        <path fill="#CBF2FB" fill-rule="nonzero" d="M9.712 8.907L26.129 3.384 116.194 31.103 116.194 116.269 100.487 124.521 0 84.124 0 12.28z" transform="translate(2 2)"/>
        <g>
            <path fill="#FFF" fill-rule="nonzero" d="M0 3.374L0 81.438 90.957 120.771 100.487 115.614 100.487 27.042 9.712 0z" transform="translate(2 2) translate(0 8.907)"/>
            <path d="M90.957 120.771L90.957 30.792 0 3.374" transform="translate(2 2) translate(0 8.907)"/>
            <path d="M0 12.839L90.957 40.257 100.487 35.691M91.269 56.878L100.788 52.312M90.957 88.798L100.487 84.231M90.957 72.832L100.487 68.266M90.957 105.912L100.487 101.346M90.957 30.792L100.487 27.042" transform="translate(2 2) translate(0 8.907)"/>
            <path d="M36.647 8.133L28.621 12.001 28.621 22.283M0 26.548L90.957 56.878M0 40.257L90.957 72.746M0 53.826L90.957 89.023M0 68.266L90.957 105.912M11.958 16.449L11.958 30.534M42.943 25.538L42.943 40.869M74.852 35.691L74.852 51.012M24.85 34.831L24.85 49.131M57.909 45.855L57.909 60.638M11.958 44.522L11.958 58.188M39.623 54.407L39.623 68.685M73.455 66.493L73.455 81.932M24.85 63.442L24.85 78.312M55.288 75.217L55.288 91.15M11.958 73.219L11.958 86.316M39.623 84.672L39.623 98.574M73.455 98.574L73.455 113.197M62.744 31.528L62.744 22.283 71.124 18.297" transform="translate(2 2) translate(0 8.907)"/>
        </g>
    </g>
</svg>
